<svg width="60" height="60" viewBox="0 0 60 60" fill="none" xmlns="http://www.w3.org/2000/svg">
<path d="M60 30.1117C60 13.4797 46.5703 0 30 0C13.4297 0 0 13.4797 0 30.1117C0 44.2266 9.69141 56.0831 22.7578 59.3413V39.3099H16.5703V30.1117H22.7578V26.1478C22.7578 15.9028 27.375 11.1508 37.4062 11.1508C39.3047 11.1508 42.5859 11.5272 43.9336 11.9035V20.2313C43.2305 20.1608 42 20.1137 40.4648 20.1137C35.543 20.1137 33.6445 21.9839 33.6445 26.8418V30.1117H43.4414L41.7539 39.3099H33.6328V60C48.4922 58.2004 60 45.5087 60 30.1117Z" fill="white"/>
</svg>
