<svg width="1600" height="1600" viewBox="0 0 1600 1600" fill="none" xmlns="http://www.w3.org/2000/svg">
<path d="M831.493 530.508C831.493 547.904 817.389 562.008 799.993 562.008C782.597 562.008 768.493 547.904 768.493 530.508C768.493 513.112 782.597 499.008 799.993 499.008C817.389 499.008 831.493 513.112 831.493 530.508Z" fill="white"/>
<path d="M831.493 800C831.493 817.396 817.389 831.5 799.993 831.5C782.597 831.5 768.493 817.396 768.493 800C768.493 782.604 782.597 768.5 799.993 768.5C817.389 768.5 831.493 782.604 831.493 800Z" fill="white"/>
<path d="M831.493 1011.75C831.493 1029.14 817.389 1043.25 799.993 1043.25C782.597 1043.25 768.493 1029.14 768.493 1011.75C768.493 994.35 782.597 980.246 799.993 980.246C817.389 980.246 831.493 994.35 831.493 1011.75Z" fill="white"/>
<path d="M831.493 1201.35C831.493 1218.74 817.389 1232.85 799.993 1232.85C782.597 1232.85 768.493 1218.74 768.493 1201.35C768.493 1183.95 782.597 1169.85 799.993 1169.85C817.389 1169.85 831.493 1183.95 831.493 1201.35Z" fill="white"/>
<path d="M831.493 1358.13C831.493 1375.53 817.389 1389.63 799.993 1389.63C782.597 1389.63 768.493 1375.53 768.493 1358.13C768.493 1340.74 782.597 1326.63 799.993 1326.63C817.389 1326.63 831.493 1340.74 831.493 1358.13Z" fill="white"/>
<path d="M831.493 147.906C831.493 165.302 817.389 179.406 799.993 179.406C782.597 179.406 768.493 165.302 768.493 147.906C768.493 130.51 782.597 116.406 799.993 116.406C817.389 116.406 831.493 130.51 831.493 147.906Z" fill="white"/>
<path d="M831.493 251.719C831.493 269.115 817.389 283.219 799.993 283.219C782.597 283.219 768.493 269.115 768.493 251.719C768.493 234.323 782.597 220.219 799.993 220.219C817.389 220.219 831.493 234.323 831.493 251.719Z" fill="white"/>
<path d="M375.067 1355.6C375.067 1361.63 379.973 1366.54 386.004 1366.54H719.191C727.066 1366.54 733.754 1361.41 735.784 1353.82C737.847 1346.22 734.628 1338.44 727.816 1334.47L653.846 1291.47C646.471 1287.19 637.346 1287.25 630.034 1291.63L603.565 1307.5C598.377 1310.6 596.69 1317.32 599.815 1322.5C602.909 1327.69 609.627 1329.38 614.815 1326.25L641.284 1310.38C641.784 1310.1 642.378 1310.1 642.878 1310.38L701.815 1344.63H386.002C379.939 1344.66 375.064 1349.54 375.064 1355.6L375.067 1355.6Z" fill="white"/>
<path d="M1548.13 1201.4C1544.1 1193.53 1536.1 1188.62 1527.26 1188.62H1422.04C1411.95 1188.62 1402.23 1183.84 1396.04 1175.84L1343.7 1107.96C1315.73 1071.68 1283.6 1038.53 1248.23 1009.43L1159.95 936.807C1146.66 925.901 1137.54 910.619 1134.2 893.777L1097.04 706.496C1080.95 625.34 1012.1 563.777 929.667 556.777C915.823 555.589 902.73 550.433 891.792 541.807C874.699 528.307 864.886 508.058 864.886 486.277V458.965C912.76 431.434 945.855 373.434 945.855 306.458C945.855 245.302 917.792 188.646 872.636 158.671C867.605 155.327 860.824 156.702 857.48 161.734C854.136 166.765 855.511 173.546 860.543 176.89C899.668 202.89 923.98 252.546 923.98 306.452C923.98 387.859 869.355 454.106 802.231 454.106C735.107 454.106 680.481 387.887 680.481 306.452C680.481 254.922 703.2 206.359 739.732 179.764C744.607 176.202 745.701 169.358 742.138 164.483C738.576 159.608 731.732 158.514 726.857 162.077C684.108 193.202 658.606 247.17 658.606 306.45C658.606 371.262 689.606 427.669 735.013 456.197V486.29C735.013 508.071 725.2 528.321 708.106 541.821C697.2 550.446 684.106 555.602 670.232 556.79C587.794 563.79 518.952 625.353 502.858 706.51L465.702 893.79C462.359 910.634 453.202 925.915 439.953 936.821L351.265 1009.79C316.172 1038.66 284.265 1071.54 256.453 1107.48L203.516 1175.92C197.359 1183.88 187.641 1188.63 177.578 1188.63H72.641C63.7973 1188.63 55.797 1193.54 51.7663 1201.42C47.7357 1209.29 48.4538 1218.63 53.6413 1225.79C71.4226 1250.42 97.9533 1266.95 127.548 1272.23C107.392 1292.42 96.2359 1320.01 96.8599 1348.66C97.5162 1378.88 111.172 1407.35 134.297 1426.79C197.86 1480.13 278.577 1509.54 361.551 1509.54C510.244 1509.54 657.577 1487.76 799.857 1444.95C799.92 1444.98 799.982 1445.01 800.045 1445.01C942.298 1487.82 1089.76 1509.54 1238.35 1509.54C1321.35 1509.54 1402.04 1480.16 1465.6 1426.79C1502.45 1395.85 1513.57 1344.04 1492.67 1300.73C1490.04 1295.29 1483.51 1293.01 1478.07 1295.63C1472.64 1298.26 1470.36 1304.79 1472.98 1310.23C1489.54 1344.51 1480.73 1385.54 1451.57 1410.01C1391.95 1460.07 1316.23 1487.63 1238.39 1487.63C1102.92 1487.63 968.414 1469.29 838.014 1433.13L875.607 1421.35C895.232 1415.2 915.576 1411.63 936.107 1410.76L1075.08 1404.79C1085.49 1404.35 1094.24 1397.26 1096.8 1387.13C1098.67 1379.7 1096.83 1372.13 1092.17 1366.51H1213.99C1220.02 1366.51 1224.92 1361.6 1224.92 1355.57C1224.92 1349.54 1220.02 1344.63 1213.99 1344.63C1213.99 1344.63 1058.73 1344.7 1058.49 1344.7L969.962 1291.63C962.649 1287.26 953.525 1287.2 946.15 1291.48L857.213 1343.17C851.994 1346.2 850.213 1352.88 853.244 1358.1C856.275 1363.32 862.963 1365.1 868.213 1362.07L957.15 1310.38C957.65 1310.1 958.244 1310.1 958.744 1310.38L1074.9 1380.01C1075.28 1380.23 1075.9 1380.6 1075.62 1381.73C1075.34 1382.85 1074.62 1382.88 1074.18 1382.91L935.208 1388.88C912.771 1389.85 890.52 1393.76 869.083 1400.48L810.334 1418.91C664.96 1464.51 513.987 1487.66 361.614 1487.66C283.77 1487.66 208.054 1460.1 148.427 1410.04C130.115 1394.66 119.302 1372.13 118.802 1348.19C118.27 1324.29 128.114 1301.29 145.739 1285.13C149.426 1281.76 153.301 1278.44 157.208 1275.32L185.238 1277.79C187.238 1277.98 189.27 1278.04 191.27 1278.04C206.832 1278.04 221.863 1272.73 234.051 1262.79L479.051 1063.32C513.707 1035.1 540.8 998.258 557.426 956.758L616.207 809.878L629.082 849.409C653.238 923.628 651.082 1004.62 622.988 1077.48L587.113 1170.54C580.488 1187.69 564.332 1199.1 545.957 1199.6L348.117 1204.94C342.086 1205.1 337.305 1210.13 337.492 1216.16C337.649 1222.19 342.711 1226.91 348.711 1226.79L546.551 1221.44C573.802 1220.69 597.739 1203.79 607.52 1178.38L643.395 1085.32C673.27 1007.82 675.583 921.6 649.864 842.626L627.676 774.408C626.238 770.033 622.238 767.001 617.645 766.845C613.114 766.658 608.832 769.439 607.145 773.72L537.145 948.627C521.926 986.689 497.051 1020.47 465.27 1046.38L220.27 1245.84C210.926 1253.44 199.177 1257.06 187.177 1256L139.958 1251.87C112.551 1249.47 87.5834 1235.28 71.458 1212.97C71.3018 1212.75 70.8955 1212.19 71.333 1211.34C71.7705 1210.5 72.458 1210.5 72.7393 1210.5H177.614C194.426 1210.5 210.583 1202.56 220.865 1189.28L273.802 1120.84C300.614 1086.19 331.365 1054.5 365.209 1026.65L453.897 953.685C471.053 939.56 482.897 919.81 487.209 897.997L524.365 710.717C538.583 639.061 599.365 584.717 672.151 578.529C690.277 576.998 707.433 570.216 721.714 558.936C744.089 541.248 756.933 514.78 756.933 486.248V467.248C771.183 472.873 786.433 475.966 802.277 475.966C816.433 475.966 830.121 473.498 843.058 468.966V486.278C843.058 514.809 855.902 541.309 878.277 558.966C892.558 570.248 909.714 577.029 927.839 578.56C1000.62 584.716 1061.4 639.09 1075.63 710.748L1112.78 898.028C1117.09 919.809 1128.94 939.591 1146.09 953.716L1234.38 1026.34C1268.47 1054.4 1299.44 1086.34 1326.41 1121.34L1378.75 1189.25C1389.03 1202.59 1405.22 1210.56 1422.06 1210.56H1527.28C1527.53 1210.56 1528.25 1210.56 1528.69 1211.4C1529.12 1212.25 1528.72 1212.81 1528.56 1213.03C1512.44 1235.34 1487.47 1249.53 1460.06 1251.94L1412.84 1256.06C1400.84 1257.12 1389.09 1253.5 1379.75 1245.9L1134.75 1046.44C1102.97 1020.56 1078.09 986.749 1062.88 948.688L992.875 773.781C991.156 769.5 986.813 766.719 982.375 766.906C977.781 767.063 973.75 770.063 972.344 774.469L950.156 842.688C924.468 921.688 926.749 1007.87 956.625 1085.38L992.499 1178.44C1002.31 1203.88 1026.25 1220.79 1053.5 1221.51L1323.78 1228.51L1365.97 1262.85C1378.19 1272.79 1393.19 1278.1 1408.75 1278.1C1410.75 1278.1 1412.75 1278.01 1414.78 1277.85L1462 1273.73C1495.75 1270.76 1526.5 1253.32 1546.31 1225.85C1551.47 1218.6 1552.19 1209.26 1548.15 1201.38L1548.13 1201.4ZM1054.04 1199.62C1035.67 1199.12 1019.51 1187.71 1012.88 1170.56L977.01 1077.49C948.947 1004.65 946.759 923.654 970.916 849.427L983.791 809.896L1042.57 956.776C1059.17 998.276 1086.29 1035.12 1120.95 1063.34L1296.01 1205.87L1054.04 1199.62Z" fill="white"/>
<path d="M1177.81 796.346L1258.97 802.44C1259.25 802.471 1259.53 802.471 1259.81 802.471C1265.47 802.471 1270.28 798.096 1270.72 792.346C1271.16 786.315 1266.66 781.065 1260.63 780.627L1179.47 774.533C1173.47 774.065 1168.19 778.596 1167.75 784.627C1167.31 790.658 1171.78 795.908 1177.81 796.346Z" fill="white"/>
<path d="M1081.4 568.505C1084.4 568.505 1087.4 567.286 1089.56 564.848L1143.84 504.223C1147.87 499.723 1147.49 492.817 1142.99 488.786C1138.49 484.755 1131.59 485.13 1127.56 489.63L1073.28 550.255C1069.24 554.755 1069.62 561.661 1074.12 565.692C1076.18 567.567 1078.81 568.505 1081.4 568.505Z" fill="white"/>
<path d="M340.213 802.467C340.494 802.467 340.776 802.467 341.057 802.436L422.213 796.342C428.244 795.873 432.744 790.655 432.307 784.623C431.869 778.592 426.557 774.061 420.588 774.529L339.432 780.623C333.4 781.092 328.901 786.311 329.338 792.342C329.744 798.092 334.557 802.467 340.213 802.467Z" fill="white"/>
<path d="M510.44 564.841C512.596 567.247 515.596 568.497 518.596 568.497C521.19 568.497 523.815 567.591 525.877 565.716C530.377 561.684 530.752 554.778 526.721 550.278L472.44 489.653C468.409 485.153 461.502 484.778 457.003 488.809C452.503 492.84 452.128 499.747 456.159 504.247L510.44 564.841Z" fill="white"/>
</svg>
