<svg width="1574" height="1600" viewBox="0 0 1574 1600" fill="none" xmlns="http://www.w3.org/2000/svg">
<path fill-rule="evenodd" clip-rule="evenodd" d="M899.28 1005.73C882.874 1036.69 877.135 1071.61 875.426 1106.24C874.973 1115.35 871.098 1119.77 867.019 1127.37C865.259 1130.64 863.499 1134.07 861.733 1137.34C859.014 1142.32 856.197 1144.63 854.639 1150.68C853.53 1154.95 852.426 1158.03 851.822 1162.45C851.467 1165.32 850.863 1167.89 850.613 1170.86C850.259 1174.73 850.311 1178.46 849.858 1182.33C849.556 1185.2 849.457 1187.82 849.254 1190.69C849.051 1193.1 848.4 1195.87 847.994 1198.34C847.337 1202.57 846.129 1207.09 845.228 1211.32C844.676 1213.84 843.967 1216.05 843.467 1218.67C842.764 1222.04 842.207 1225.01 841.301 1228.38C839.436 1235.18 839.54 1245.04 839.337 1252.24C839.337 1253.05 839.186 1253.8 839.54 1254.5C840.499 1254.41 840.395 1252.74 840.447 1252.04C841.15 1243.03 840.395 1236.39 843.061 1227.33C844.269 1223.16 844.822 1218.73 846.082 1214.5C846.837 1211.93 847.441 1209.06 848.144 1206.4C849.254 1202.07 850.056 1197.69 850.962 1193.36C851.514 1190.64 851.618 1186.82 851.967 1183.95C852.269 1181.43 852.52 1179.57 852.723 1177.05C853.077 1172.32 853.478 1169.3 854.535 1164.67C855.139 1161.95 855.441 1159.94 856.4 1157.17C859.165 1149.42 859.014 1148.92 864.504 1142.63C866.316 1140.56 870.947 1134.72 873.514 1134.32C875.577 1133.97 875.228 1137.49 875.275 1138.9C876.03 1162.66 878.545 1186.41 882.171 1209.91C890.171 1244.69 895.405 1258.38 897.321 1267.33L909.451 1281.68C923.243 1298.23 912.821 1303.57 930.738 1311.02C936.827 1313.53 942.967 1315.85 949.055 1318.21C958.264 1321.73 961.686 1321.69 965.711 1327.93C979.299 1326.36 998.222 1323.35 1010.1 1317.96C1030.38 1308.8 1052.83 1304.13 1077.29 1317.86C1101.8 1331.6 1107.79 1356.06 1131.59 1356.06C1142.67 1355.96 1154.69 1365.12 1165.82 1362.6C1180.61 1359.33 1195.51 1356.11 1210.4 1355.25C1215.34 1355 1220.32 1355.05 1225.3 1355.46C1274.37 1376.9 1326.66 1366.83 1376.94 1360.79C1338.74 1366.83 1292.49 1380.37 1254.3 1374.38C1260.34 1382.43 1264.36 1397.02 1274.43 1403.02C1256.36 1405.03 1252.33 1384.95 1244.28 1374.88C1240.25 1370.85 1236.23 1368.84 1232.66 1368.74C1227.37 1368.13 1221.54 1368.44 1216.91 1368.04C1211.37 1368.04 1205.89 1368.39 1203.97 1369.7C1202.06 1371 1204.43 1375.59 1207.8 1380.62C1211.17 1385.7 1215.45 1391.24 1217.26 1394.56C1218.11 1403.07 1223.25 1414.89 1224.66 1423.65C1225.61 1433.92 1222.9 1438.85 1222.49 1436.03C1222.14 1433.16 1220.63 1425.61 1219.02 1418.32C1217.41 1411.07 1215.65 1404.12 1214.79 1402.57C1213.03 1399.45 1210.61 1394.87 1206.94 1391.7C1203.27 1388.53 1194.71 1379.42 1192.59 1377.71C1190.48 1375.99 1184.9 1373.13 1184.9 1373.13C1180.97 1374.09 1151.13 1381.28 1149.42 1382.34C1147.2 1383.65 1150.17 1386.67 1151.23 1387.93C1153.69 1390.8 1156.92 1393.92 1159.64 1396.63C1161.95 1399 1164.47 1401.21 1166.83 1403.63C1170.51 1407.3 1174.28 1410.78 1177.91 1414.55C1180.78 1417.62 1184.15 1420.9 1187.32 1423.66C1190.64 1426.63 1194.11 1427.89 1197.48 1430.41C1199.75 1432.07 1199.45 1433.53 1197.03 1432.22C1194.42 1430.81 1191.25 1429.1 1188.73 1427.54C1185.76 1425.67 1181.28 1421.4 1178.51 1418.88C1174.69 1415.41 1171.16 1412.19 1167.19 1408.86C1164.22 1406.4 1161.8 1404.23 1158.68 1401.92C1152.04 1396.99 1149.37 1393.97 1140.97 1391.6C1137.5 1390.65 1135.03 1389.94 1131.46 1389.24C1129.95 1388.94 1128.34 1388.58 1126.88 1388.03C1125.88 1387.68 1125.47 1387.83 1125.32 1389.09C1125.02 1391.75 1126.53 1394.53 1128.39 1396.29C1132.62 1400.26 1138.8 1401.57 1141.72 1407.06C1125.62 1409.07 1119.58 1392.96 1109.36 1385.17C1106.4 1382.3 1100.01 1376.11 1093.41 1369.97C1086.87 1363.83 1080.13 1357.69 1076.45 1354.82C1069.1 1349.08 1058.94 1342.23 1048.47 1342.23C1037.95 1342.23 1018.02 1350.79 1018.02 1350.79L1009.01 1354.06C1017.77 1356.33 1019.18 1359.55 1027.13 1368.16C1039.36 1381.44 1048.22 1369.97 1062.31 1374.2C1066.58 1375.61 1073.23 1382.2 1077.41 1384.27C1081.58 1386.33 1088.48 1396.65 1092.5 1399.36C1114.5 1422.77 1123.66 1439.32 1155.82 1443.35C1161.86 1444.35 1167.39 1446.47 1172.58 1449.39C1188.13 1458.15 1200.56 1474 1214.14 1487.59C1203.58 1485.57 1200.81 1481.7 1191.05 1475C1186.17 1471.68 1177 1459.25 1171.77 1457.54C1164.12 1454.42 1158.84 1454.47 1150.88 1455.33C1146.71 1455.78 1141.98 1453.57 1138.35 1451.65C1134.93 1449.84 1133.32 1448.13 1130.35 1445.97C1129.24 1445.21 1126.38 1443.3 1125.42 1445.21C1124.42 1447.18 1128.84 1451.85 1130.1 1453.36C1132.17 1455.88 1135.14 1458.6 1137.45 1461.01C1140.12 1463.83 1141.93 1465.7 1145 1468.16C1147.17 1469.87 1149.28 1472.13 1151.44 1474.05C1154.51 1476.77 1157.43 1479.28 1160.3 1482.2C1162.21 1484.11 1163.72 1485.52 1165.54 1487.64C1171.37 1494.38 1175.7 1497.71 1178.77 1506.67C1179.83 1509.73 1180.13 1513.01 1181.13 1516.18C1182.29 1519.95 1183.55 1523.72 1185.52 1527.2C1187.23 1530.22 1184.46 1521.31 1186.02 1525.63C1186.32 1526.54 1187.23 1529.46 1185.57 1529.56C1184.06 1529.66 1182.05 1524.68 1181.49 1523.52C1179.98 1520.15 1178.52 1515.52 1177.67 1511.89C1175.5 1502.84 1171.12 1498.76 1164.53 1492.77C1162.27 1490.71 1160.5 1489.05 1158.04 1487.13C1152.2 1482.65 1146.06 1478.73 1140.22 1474.15C1119.18 1457.69 1101.32 1437.91 1081.29 1420.45C1077.51 1417.13 1073.64 1413.91 1069.56 1410.94C1064.18 1406.97 1069.16 1408.37 1062.92 1405.66C1056.73 1400.32 1044.7 1396.8 1038.77 1396.6C1032.88 1396.39 1022.31 1394.54 1016.88 1390.96C1012.65 1388.14 999.563 1381.2 996.542 1379.54C994.177 1378.23 976.563 1374.51 970.271 1371.34C969.313 1374.06 986.73 1382.96 988.189 1384.53C991.459 1388 995.538 1391.22 999.058 1394.14C1004.44 1398.52 1009.83 1402.8 1015.31 1407.07C1020 1410.8 1024.63 1414.52 1029.26 1418.45C1033.18 1423.28 1039.22 1427.31 1043.25 1431.33C1057.99 1451.46 1066.45 1475.12 1079.43 1495.8C1081.95 1499.58 1101.93 1511.85 1107.57 1515.48C1110.59 1517.39 1113.56 1518.7 1116.58 1520.86C1119.19 1522.73 1121.66 1524.19 1124.23 1526.15C1127.1 1528.36 1130.12 1529.97 1133.19 1531.79C1135.7 1533.3 1138.22 1535.46 1140.43 1537.37C1144.16 1540.44 1147.33 1543.46 1150.5 1547.09C1153.22 1550.16 1156.14 1553.08 1159.01 1556.05C1159.97 1557.05 1164.04 1561.94 1163.89 1563.04C1163.74 1564.7 1161.57 1562.84 1161.07 1562.39C1159.56 1560.88 1158.4 1559.21 1156.79 1557.7C1153.42 1554.48 1150.25 1551.31 1146.93 1547.99C1143.66 1544.67 1135.4 1538.18 1131.33 1536.21C1127.7 1534.5 1124.43 1533.15 1120.96 1531.08C1118.69 1529.72 1115.88 1528.41 1113.46 1527.26C1110.74 1525.95 1106.56 1524.84 1103.54 1523.78C1091.52 1515.73 1075.41 1511.7 1065.35 1499.68C1062.33 1495.95 1059.71 1492.13 1057.35 1488.2C1045.42 1468.43 1039.48 1446.28 1020.76 1430.73C1016.38 1427.01 1011.9 1423.43 1007.47 1419.86C998.566 1412.77 989.503 1405.97 980.347 1399.53C975.617 1396.26 970.836 1393.03 965.904 1390.12C963.034 1388.6 960.013 1387.35 957.248 1385.54C947.685 1379.3 943.508 1374.57 932.638 1371.09L931.831 1370.84C921.815 1367.47 919.201 1357.86 911.3 1352.78C910.545 1352.27 910.748 1352.98 910.946 1353.58C911.498 1355.4 912.305 1356.85 912.858 1358.87C913.16 1359.98 915.123 1366.52 914.67 1367.17C913.613 1366.97 909.686 1361.08 908.378 1359.72C906.415 1357.66 903.696 1355.75 901.535 1353.73C897.712 1350.21 893.936 1345.89 890.915 1341.6C888.347 1337.93 885.379 1333.1 883.264 1329.13C880.951 1324.85 878.785 1317.65 878.181 1312.82C877.826 1309.8 877.222 1306.93 876.873 1303.86C876.623 1301.44 875.717 1298.38 875.113 1296.01C875.717 1299.03 876.524 1301.25 876.774 1304.46C877.024 1307.28 877.582 1309.9 877.832 1312.67C878.436 1319.11 880.8 1326.71 883.873 1332.4C886.087 1336.47 887.951 1340.4 890.415 1344.38C893.889 1350.01 897.207 1355.5 902.394 1359.82C906.519 1363.3 909.035 1367.73 911.654 1372.41C912.613 1374.02 913.467 1375.63 914.42 1377.24C917.993 1383.33 921.92 1388.81 928.363 1390.93C936.717 1394 940.842 1398.58 944.565 1403.66C948.289 1408.69 951.659 1414.13 958.456 1418.96C970.836 1429.33 984.929 1439.39 996.857 1450.41C1001.59 1455.25 1005.51 1460.58 1008.94 1466.06C1011.81 1470.69 1014.27 1475.48 1016.59 1480.36C1018.9 1485.24 1021.01 1490.17 1023.18 1495.1C1028.57 1506.22 1035.31 1519.31 1042.86 1529.02C1044.16 1530.68 1047.39 1533.1 1049.1 1534.76C1051.16 1536.73 1053.07 1538.94 1055.09 1541C1057.25 1543.22 1058.86 1545.28 1061.33 1547.24C1064.8 1549.96 1068.17 1552.93 1071.64 1555.75C1073.86 1557.61 1075.82 1559.52 1077.99 1561.43C1080.81 1563.95 1083.47 1566.06 1086.09 1568.83C1087.05 1569.84 1088.51 1571.35 1089.46 1572.15C1088.96 1571.45 1086.7 1569.28 1085.94 1568.43C1085.94 1568.43 1081.51 1563.8 1082.72 1564.96C1085.74 1567.83 1088.51 1570.94 1091.53 1573.91C1092.13 1574.52 1096.06 1578.14 1094.1 1578.79C1092.64 1579.3 1087.71 1574.62 1086.5 1573.51C1084.23 1571.45 1082.32 1569.58 1079.86 1567.62C1079.05 1566.96 1072.81 1562.28 1072.86 1561.93C1072.91 1561.53 1063.35 1554.53 1062.34 1553.88C1060.58 1552.67 1058.41 1551.21 1056.75 1549.95C1054.54 1548.29 1051.97 1545.67 1049.76 1543.71C1046.03 1540.39 1045.03 1539.03 1040.4 1536.66C1037.08 1535 1036.02 1534.15 1033.2 1531.68C1021.12 1521.21 1011.26 1508.28 1001.49 1495.7C998.676 1490.97 995.957 1486.08 993.191 1481.35C981.967 1462.38 969.489 1445.42 950.718 1445.42C933.306 1444.11 936.426 1466 942.213 1487.89C943.671 1493.38 945.281 1498.81 946.895 1503.94C948.557 1509.03 950.52 1513.66 952.281 1517.48C947.145 1511.69 940.655 1505.76 938.593 1499.77C936.931 1495.09 935.572 1490.3 934.415 1485.57C928.629 1461.72 927.52 1437.41 912.571 1417.18C908.092 1410.54 902.858 1404.4 896.519 1399.01C894.306 1397.05 893.65 1396.14 893.301 1393.22C892.947 1389.86 890.936 1390.96 890.28 1393.93C890.03 1395.14 889.879 1396.75 889.879 1398.01C889.879 1398.01 889.478 1389.95 889.025 1392.82C888.519 1395.79 889.176 1401.18 889.879 1404.15C890.837 1408.02 891.993 1412.05 893.051 1415.92C894.056 1419.8 895.467 1424.28 896.978 1427.95C897.983 1430.46 898.842 1432.98 899.796 1435.45C900.499 1437.21 901.306 1438.92 901.962 1440.78C902.717 1442.75 903.27 1444.15 903.926 1446.22C904.931 1449.74 905.837 1451.4 907.296 1454.67C907.499 1455.18 909.509 1459.25 907.9 1459C907.092 1458.9 905.181 1454.62 904.728 1453.77C903.368 1451.1 902.613 1449.19 901.707 1446.27C900.499 1442.44 898.337 1438.27 896.775 1434.49C895.212 1430.71 893.504 1427.4 892.144 1423.57C891.087 1420.6 889.978 1417.88 888.973 1414.81C887.41 1410.03 885.197 1405.65 883.889 1400.67C882.983 1397.4 882.176 1394.03 881.275 1390.71C879.915 1385.78 878.358 1384.57 875.134 1380.94C873.572 1379.18 875.134 1380.24 874.28 1378.88C870.202 1372.74 863.009 1366.3 857.171 1361.72C854.301 1359.45 852.744 1357.94 850.275 1355.38C846.4 1351.35 842.624 1347.32 839.452 1342.69C837.035 1339.17 835.275 1335.9 833.259 1332.17C831.65 1329.26 835.426 1337.46 835.426 1337.46C838.191 1343.2 840.863 1347.93 844.436 1353.21C846.65 1356.43 848.712 1359.65 850.978 1362.87C852.087 1364.48 853.644 1366.65 854.098 1368.56C857.368 1382.35 862.603 1396.39 868.39 1409.32C870.405 1413.8 872.468 1418.18 874.629 1422.56C879.16 1431.97 882.431 1441.93 885.046 1452.1C886.405 1457.23 887.561 1462.36 888.718 1467.55C896.369 1495.78 880.265 1535.94 932.551 1550.03C939.697 1551.94 942.619 1554.56 940.603 1558.08C935.572 1558.59 930.186 1558.69 924.702 1558.29C919.264 1557.83 913.78 1556.83 908.598 1555.11C903.462 1553.6 898.431 1551.29 894.155 1548.17C889.879 1545 886.306 1541.03 884.343 1536C882.931 1532.67 882.681 1529.91 878.405 1532.27C875.134 1534.08 864.665 1544.45 862.452 1547.77C859.483 1552.3 856.462 1559.9 855.608 1565.18C855.056 1569.01 854.952 1572.83 854.348 1576.56C854.249 1577.31 853.796 1580.13 852.587 1579.73C851.733 1579.43 852.233 1576.01 852.285 1575.15C852.79 1567.7 852.587 1563.43 855.004 1556.12C857.171 1549.68 858.478 1546.21 862.655 1540.78C865.723 1536.8 867.889 1533.93 870.353 1529.5C873.118 1524.42 875.384 1520.3 874.733 1514.31C873.624 1504.19 872.165 1494.33 870.004 1484.36C864.973 1461.11 859.738 1438.72 845.848 1418.89C842.78 1413.96 839.556 1409.38 836.035 1405.36C836.035 1412.4 836.035 1419.95 835.077 1427.5C834.02 1435.5 834.02 1443.55 827.983 1449.59C827.884 1440.64 823.202 1433.29 819.077 1425.64C817.213 1422.17 815.655 1421.41 814.499 1416.98C813.192 1412.05 813.494 1408.53 814.65 1403.65C817.067 1393.83 816.463 1386.58 812.338 1377.32C811.181 1374.71 809.421 1371.99 808.061 1369.32C806.603 1366.45 805.796 1364.75 804.588 1361.67C802.124 1355.23 800.962 1348.59 798.848 1342.05C797.89 1339.08 797.239 1336.36 796.129 1333.34C795.02 1330.37 794.113 1327.2 793.009 1324.13C791.598 1320.26 790.895 1315.72 789.739 1311.7C791.15 1316.28 791.801 1320.51 793.515 1325.14C794.671 1328.31 795.681 1331.53 796.838 1334.7C797.843 1337.46 798.598 1340.48 799.556 1343.3C801.015 1347.63 801.973 1352.26 803.431 1356.69C804.285 1359.2 805.145 1361.82 806.301 1364.23C807.004 1365.74 805.395 1362.12 805.395 1362.07C803.228 1356.58 801.973 1351.65 800.462 1346.02C799.707 1343.2 798.702 1340.43 797.848 1337.61C797.041 1334.89 795.936 1332.02 795.03 1329.31C793.921 1326.04 792.817 1323.17 791.962 1319.84C791.155 1316.67 790.4 1313.7 789.546 1310.53C787.634 1303.84 787.483 1293.77 787.332 1286.68C787.181 1280.38 787.03 1274.05 787.03 1267.76C787.03 1262.67 788.139 1257.19 788.442 1252.05C788.744 1247.37 789.551 1242.74 789.65 1238.06C789.65 1237.41 789.702 1237.1 789.551 1236.5C788.796 1236.65 788.999 1236.95 788.895 1237.86C788.494 1241.33 788.343 1244.65 787.837 1248.13C787.436 1251.4 787.384 1254.57 786.879 1257.94C786.275 1262.17 785.921 1265.94 785.973 1270.22C785.973 1280.69 785.822 1292.11 786.629 1302.48C786.983 1306.6 787.535 1309.07 788.593 1313.05C789.801 1317.47 790.405 1321.4 791.962 1325.83C793.072 1329 794.077 1332.27 795.134 1335.49C795.988 1338.16 796.645 1340.93 797.499 1343.64C798.91 1348.02 799.712 1352.85 801.072 1357.38C802.785 1363.12 804.191 1366.74 806.91 1372.13C808.775 1375.75 809.978 1377.71 811.087 1381.74C813.4 1390.04 812.749 1395.53 809.827 1403.48C808.165 1407.86 807.915 1410.57 807.212 1415.11C806.358 1421 804.9 1421.3 802.077 1426.18C798.452 1432.47 796.087 1438.96 794.478 1446.01C793.52 1450.24 792.816 1454.56 792.363 1458.99C792.264 1466.19 791.962 1466.99 795.936 1473.13C800.113 1479.63 806.504 1485.41 811.686 1491.2C814.555 1494.47 818.076 1500.71 819.587 1504.79C820.441 1507.15 821.347 1509.37 822.154 1511.78C823.764 1516.51 825.93 1521.19 827.691 1525.92C828.446 1527.98 829.858 1530.76 830.91 1532.71C832.019 1534.88 832.972 1536.34 833.977 1538.7C834.378 1539.66 836.092 1543.39 835.941 1544.09C835.639 1545.55 834.28 1543.58 833.977 1543.08C832.467 1540.36 831.462 1537.7 829.8 1534.93C828.691 1533.17 827.488 1530.81 826.477 1528.94C825.519 1527.18 824.717 1524.92 823.863 1523.05C821.998 1519.03 820.342 1515.05 818.681 1510.92C815.207 1502.42 811.535 1496.48 803.785 1491.24C802.222 1490.19 793.415 1483.8 792.613 1488.03C792.363 1489.33 792.514 1495.47 792.462 1497.29C792.311 1511.93 791.555 1526.83 788.233 1541.12C787.024 1546.25 785.363 1560.8 783.701 1565.73C778.618 1576.15 775.649 1583.34 769.608 1584.35C775.65 1572.27 773.634 1558.23 777.259 1545.85C778.066 1539.71 778.519 1533.57 778.671 1527.43C779.176 1508.85 777.212 1491.84 774.894 1473.53C774.54 1470.71 774.743 1468.84 774.087 1465.87C773.582 1463.51 773.233 1461.85 772.931 1459.43C771.822 1451.48 770.665 1443.53 769.66 1435.58C769.41 1429.89 769.358 1424.2 769.66 1418.47C769.962 1412.78 770.566 1407.09 771.572 1401.41C766.79 1405.43 762.311 1409.66 758.036 1414.09C753.76 1418.51 749.733 1423.1 745.806 1427.88C741.983 1433.36 737.957 1438.75 733.879 1444.04C730.306 1448.67 729.15 1449.37 729.301 1455.51C729.4 1460.14 730.812 1464.72 731.916 1469.2C733.78 1476.59 735.994 1482.28 739.765 1488.97C741.525 1492.15 742.785 1495.72 743.39 1499.24C744.598 1506.48 744.598 1516.35 744.65 1523.85C744.65 1526.21 744.296 1529.44 744.098 1531.9C743.796 1535.02 743.343 1537.89 743.14 1541.11C742.838 1546.14 742.786 1549.97 743.947 1554.95C744.853 1558.92 746.968 1562.4 747.421 1566.57C747.572 1567.93 746.765 1568.23 746.265 1566.63C745.458 1563.86 745.004 1562.3 743.9 1559.53C741.937 1554.8 741.234 1549.57 741.286 1544.48C741.385 1538.19 742.291 1532.26 742.546 1526.06C742.697 1522.64 742.343 1517.56 742.145 1514.04C741.791 1508.05 741.338 1499.94 738.723 1494.61C737.666 1492.44 737.114 1491.54 735.754 1489.53C731.931 1483.74 729.312 1478.45 726.244 1472.31C725.239 1470.35 720.557 1461.94 717.687 1463.76C715.973 1464.87 708.072 1474.93 706.416 1477.19C703.145 1481.67 703.093 1482.28 703.046 1487.71C702.994 1490.99 704.202 1499.24 704.911 1502.51C705.666 1505.99 706.671 1509.11 707.275 1512.58C707.728 1515.1 708.333 1517.61 708.786 1520.18C709.338 1522.94 710.348 1525.16 710.801 1528.18C711.306 1531.6 711.911 1534.62 712.161 1538.1C712.411 1540.91 712.916 1543.53 713.119 1546.4C713.624 1553.6 713.624 1561.69 713.52 1568.94C713.52 1569.5 713.671 1572.27 712.562 1571.71C711.504 1571.16 711.556 1564.56 711.556 1563.15C711.353 1555.61 711.202 1548.3 709.796 1540.86C709.244 1538.04 709.041 1535.47 708.385 1532.6C707.577 1529.23 707.275 1527.06 705.921 1523.84C705.015 1521.63 704.411 1519.37 703.655 1517.1C702.65 1514.13 702.046 1512.02 700.687 1509.1C699.832 1507.24 696.509 1498.99 694.296 1499.03C692.687 1499.08 690.624 1504.72 690.02 1506.18C677.437 1536.42 676.38 1569.09 685.088 1600.54C676.03 1599.54 674.416 1590.17 672.004 1583.93C669.64 1577.69 669.489 1567.17 667.978 1560.83C662.192 1535.87 662.947 1510.05 674.421 1486.95C676.535 1480.81 679.103 1474.82 682.171 1468.98C685.192 1463.15 688.713 1457.41 692.692 1451.92C695.864 1446.14 699.035 1440.4 702.051 1434.61C705.072 1428.82 708.041 1423.04 710.707 1417.25C712.671 1412.46 714.483 1407.63 716.093 1402.75C718.155 1395.55 719.765 1388.11 722.734 1380.76C725.4 1374.92 727.114 1374.22 727.265 1367.07C727.364 1362.89 726.911 1359.02 727.213 1354.74C727.666 1348.15 727.968 1342.76 729.879 1336.37C731.593 1330.58 732.697 1325.15 734.864 1319.46C737.03 1313.82 736.577 1309.84 737.832 1304.26C738.791 1300.18 738.838 1297.57 739.14 1293.54C739.442 1289.46 741.202 1282.02 742.864 1278.25C744.624 1274.47 745.833 1272.71 748.249 1269.34C750.666 1265.97 752.931 1260.83 753.734 1256.76C754.088 1254.89 754.437 1252.83 754.739 1250.97C756.301 1242.21 755.796 1233.2 756.098 1224.34C756.301 1217.65 759.27 1210.15 761.583 1203.86C763.447 1198.72 763.244 1193.69 763.999 1188.41C765.411 1178.15 765.004 1166.77 765.155 1156.36C765.155 1154.59 764.65 1154.9 764.551 1156.3C764.249 1161.39 764.348 1167.07 764.249 1172.2C764.15 1178.25 763.895 1183.23 763.041 1189.21C762.286 1194.9 762.64 1198.83 760.374 1204.47C758.411 1209.4 755.796 1216.9 755.239 1222.08C754.838 1225.71 754.937 1230.34 754.838 1234.16C754.635 1240.65 754.385 1246.29 753.077 1252.73C752.072 1257.66 752.223 1258.72 749.905 1263.45C748.546 1266.22 747.994 1267.27 746.129 1269.69C742.807 1273.97 740.343 1279 738.984 1284.28C737.926 1288.51 737.322 1290.52 736.968 1295C736.614 1299.18 736.114 1301.35 735.155 1305.32C734.15 1309.45 734.301 1312.87 732.692 1317.1C731.989 1318.96 731.181 1320.72 730.478 1322.58C728.765 1327.16 727.411 1331.64 725.697 1336.22C723.786 1341.36 723.083 1345.13 721.921 1350.36C721.416 1352.88 720.713 1355.19 720.207 1357.71C719.202 1362.84 718.697 1368.23 715.728 1372.76C714.619 1374.47 714.166 1375.42 713.312 1377.24C712.306 1379.3 711.098 1381.16 709.838 1383.02C705.155 1390.02 700.78 1396.26 696.098 1402.05C692.577 1405.32 689.103 1408.59 685.728 1412.01C682.358 1415.38 679.134 1418.91 675.962 1422.48C671.129 1426.76 667.056 1431.44 663.332 1436.42C659.608 1441.41 656.285 1446.64 653.066 1451.98C646.624 1463.65 640.587 1477.74 630.572 1487.81C632.587 1477.74 632.634 1468.23 637.113 1460.13C640.686 1452.68 646.171 1433.95 645.165 1424.95C639.681 1422.89 635.853 1434.91 630.769 1435.57C623.978 1437.33 616.931 1448.4 611.493 1451.62C606.009 1454.84 584.769 1468.38 580.291 1472.71C552.864 1501.95 556.187 1523.99 525.988 1552.12C534.04 1517.95 552.16 1475.73 581.097 1452.88C586.634 1448.95 592.217 1445.13 597.603 1441.41C602.988 1437.68 608.222 1433.96 613.051 1430.33C617.884 1426.31 622.108 1422.13 625.53 1417.65C630.009 1413.17 633.832 1408.59 636.905 1403.86C640.629 1398.83 644.754 1394.24 653.061 1391.18C664.785 1387.15 668.509 1372.2 676.009 1363.09C677.368 1361.43 678.472 1360.48 679.936 1358.97C683.962 1354.74 683.41 1349.35 685.623 1344.02C687.233 1340.14 691.967 1334.96 694.681 1331.34C698.05 1326.86 699.665 1325.95 701.426 1320.32C702.181 1317.9 703.186 1315.48 703.941 1313.07C704.946 1309.8 702.983 1309.6 701.426 1312.26C699.16 1316.04 698.405 1320.77 695.535 1324.04C693.972 1325.8 692.165 1327.56 690.551 1329.37C686.623 1333.75 681.946 1337.12 678.373 1341.75C675.556 1345.38 673.894 1348.65 670.472 1351.97C666.748 1355.55 664.129 1358.61 660.858 1362.54C657.587 1366.42 654.665 1369.38 649.686 1371.05L648.879 1371.3C638.009 1374.77 633.78 1379.5 624.269 1385.74C621.504 1387.55 618.483 1388.81 615.514 1390.42C610.634 1393.29 605.853 1396.46 601.17 1399.73C596.79 1402.95 592.462 1406.18 588.186 1409.4C582.852 1413.07 577.618 1416.84 572.483 1420.77C548.327 1439.24 525.53 1459.32 502.728 1479.45C499.661 1482.17 496.64 1485.65 493.671 1488.61C490.15 1492.19 486.577 1495.71 482.999 1499.23C481.088 1501.1 477.26 1505.83 475.905 1508.14C474.244 1510.96 473.39 1513.47 472.129 1516.44C469.963 1521.53 468.458 1526.31 466.947 1531.59C466.744 1532.35 465.187 1538.23 463.577 1536.43C462.822 1535.57 464.687 1529.08 464.989 1527.87C466.197 1523.09 467.603 1518.71 469.369 1514.08C470.828 1510.25 471.333 1508.14 473.645 1504.46C475.005 1502.35 477.015 1499.88 478.577 1497.87C480.489 1495.45 483.359 1492.73 485.52 1490.37C489.447 1486.09 492.614 1482.62 495.937 1477.84C506.859 1462.39 520.145 1445.63 534.035 1432.84C539.02 1428.26 544.202 1424.09 549.738 1420.21C554.368 1416.94 559.15 1413.97 564.181 1411.31C568.207 1407.28 570.222 1401.24 571.983 1397.77C572.738 1395.35 572.837 1392.54 571.28 1390.57C568.061 1386.4 563.379 1392.59 560.41 1394.5C554.723 1398.28 548.936 1399.98 543.098 1402C514.161 1420.17 485.322 1441.61 465.139 1469.59C463.478 1471.9 461.816 1475.07 460.358 1477.54C459.353 1479.2 458.546 1480.86 457.54 1482.57C455.025 1486.7 452.405 1490.57 450.192 1494.85C448.681 1497.62 447.473 1499.88 446.113 1502.81C444.754 1505.77 443.046 1508.85 441.582 1511.86C440.473 1514.08 439.416 1515.79 438.514 1518.21C436.65 1522.99 434.54 1528.73 433.681 1533.71C433.327 1535.67 432.978 1537.53 432.624 1539.45C432.374 1540.65 433.129 1537.88 433.129 1537.88C433.582 1535.92 433.884 1533.86 434.389 1531.89C433.988 1533.71 433.082 1540.75 431.473 1541.51C429.457 1542.47 430.567 1536.88 430.665 1536.07C431.171 1531.99 431.52 1529.73 432.728 1525.7C434.238 1520.57 435.395 1516.24 437.66 1511.36C438.77 1508.99 439.723 1506.18 440.832 1503.71C442.291 1500.38 443.296 1497.17 444.858 1493.84C445.968 1491.43 446.723 1489.42 448.077 1486.95C450.139 1483.17 451.853 1480.1 453.462 1476.08C454.723 1472.9 455.775 1470.44 456.832 1467.22C458.546 1461.88 459.65 1457.05 459.65 1451.41C443.546 1452.77 424.369 1455.29 409.525 1461.73C402.582 1464.75 396.592 1469.73 390.853 1474.66C387.983 1477.13 385.519 1479.39 382.498 1481.76C380.186 1483.52 378.019 1485.18 375.754 1487.04C368.962 1492.73 363.926 1496.81 359.347 1504.66C357.331 1508.13 356.883 1512.66 355.222 1515.28C354.217 1516.84 352.607 1516.99 353.31 1514.43C354.066 1511.86 354.67 1508.99 355.477 1506.52C356.889 1502.04 361.113 1495.9 364.284 1492.38C367.404 1488.91 371.128 1485.19 374.503 1481.97C376.066 1480.46 377.675 1479.1 379.232 1477.59C382.503 1474.42 385.675 1470.69 388.847 1467.32C393.425 1462.59 397.654 1458.42 402.79 1454.29C410.54 1448.05 419.295 1441.7 429.263 1439.69C430.018 1439.54 430.721 1439.44 431.477 1439.34C469.674 1437.32 489.805 1409.19 520.154 1392.73C524.279 1390.72 528.508 1389.01 532.784 1387.6C546.978 1383.37 553.268 1384.08 565.544 1370.74C574.049 1361.53 584.872 1363.49 594.08 1360.47L566.851 1350.86C566.851 1350.86 546.924 1342.3 536.403 1342.3C525.882 1342.3 515.767 1349.14 508.419 1354.88C501.07 1360.57 481.492 1379.49 475.507 1385.18C469.569 1390.92 466.043 1395.5 459.652 1401.23C453.308 1407.02 440.83 1408.08 443.6 1407.47C445.012 1407.17 450.595 1401.69 454.975 1396.45C459.355 1391.27 462.626 1386.38 459.355 1387.39C452.913 1389.41 444.309 1385.08 438.569 1383.12C435.699 1382.11 425.985 1379.6 417.079 1377.38C397.501 1365.7 384.918 1383.32 372.59 1396.1C368.465 1400.38 365.694 1404.06 362.324 1408.94C360.564 1411.55 358.955 1413.67 357.34 1416.38C354.574 1421.07 351.403 1425.19 347.929 1429.27C346.47 1430.93 345.512 1432.14 343.85 1433.75C340.074 1437.47 336.705 1441.2 332.731 1444.77C330.314 1446.94 324.074 1453.02 322.564 1455.64C321.908 1456.7 318.538 1464.3 317.231 1462.73C316.679 1462.08 318.189 1459.76 318.538 1459.06C321.002 1454.08 320.752 1453.93 324.679 1449.65C327.095 1446.98 329.257 1444.72 331.877 1442.25C335.502 1438.83 338.97 1434.66 342.397 1430.98C345.465 1427.71 349.543 1421.72 351.658 1417.8C354.324 1412.86 356.59 1407.68 359.106 1402.6C362.376 1395.96 363.684 1392.38 368.871 1386.85C371.335 1384.23 374.762 1381.46 376.871 1378.9C377.981 1377.59 378.887 1376.18 377.225 1374.92C353.069 1358.82 323.423 1369.39 311.345 1399.53C311.142 1401.95 307.168 1406.58 305.559 1408.64C303.246 1411.56 301.533 1413.47 298.918 1416.04C295.898 1419.01 293.434 1422.18 290.262 1425.15C286.741 1428.52 283.47 1431.94 279.793 1435.16C274.96 1439.39 271.689 1442.91 268.371 1448.45C268.017 1449.05 263.84 1456.75 262.736 1454.64C262.283 1453.73 264.85 1449.81 265.35 1448.85C268.069 1443.97 270.132 1440.75 273.908 1436.57C276.673 1433.51 280.1 1430.64 282.918 1427.46C285.736 1424.24 288.356 1421.47 290.918 1418C292.679 1415.58 294.392 1413.22 296.252 1410.8C299.017 1407.18 301.184 1403.05 302.694 1398.78C304.408 1393.64 306.215 1391.88 309.137 1387.45C311.35 1384.08 313.819 1380.1 313.866 1375.98C285.73 1384.03 242.45 1393.09 216.33 1383.03C222.372 1383.03 228.408 1387.05 236.461 1385.04C296.805 1374.97 355.081 1344.83 415.527 1361.94C421.012 1363.15 426.246 1364.36 431.178 1365.42C440.991 1367.58 449.345 1369.24 455.282 1369.24C479.089 1369.24 489.553 1338.39 514.063 1324.65C538.574 1310.96 560.063 1310.81 580.345 1319.97C591.366 1324.9 603.949 1323.59 617.183 1325.26C621.157 1319.42 624.579 1319.37 633.642 1315.94C639.731 1313.63 645.871 1311.26 651.959 1308.75C669.877 1301.3 671.438 1299.39 685.277 1282.83C690.209 1259.93 694.386 1270.4 694.99 1243.52L698.964 1216.29C704.402 1181.01 707.824 1145.33 707.016 1109.65C706.964 1106.89 706.714 1102.91 710.642 1105.73C716.631 1110 719.85 1114.13 724.33 1119.77C726.793 1122.83 728.809 1124.6 730.772 1128.32C732.939 1132.35 733.944 1135.07 734.85 1139.59C735.553 1143.22 736.611 1146.39 737.215 1150.06C737.668 1152.73 738.423 1155.35 739.079 1157.96C739.585 1159.88 740.34 1161.74 740.892 1163.75C741.345 1165.36 743.559 1172.51 744.413 1173.16C745.522 1173.97 745.22 1171.9 745.069 1171.45C744.413 1168.63 743.256 1165.76 742.553 1162.84C742.001 1160.68 741.293 1158.82 740.793 1156.61C740.241 1153.99 739.684 1152.18 739.283 1149.41C738.777 1145.68 737.72 1142.16 737.116 1138.33C736.059 1131.39 733.038 1125.1 728.762 1119.56C726.548 1116.69 724.533 1113.17 722.319 1110.1C719.804 1106.63 717.236 1103.26 715.173 1099.48C712.001 1093.64 708.783 1088.66 706.517 1082.32C705.408 1079.25 704.856 1077.64 704.402 1074.32C701.736 1053.23 696.804 1032 687.793 1012.67C685.278 1007.23 693.684 1009.3 696.048 1010.25C699.371 1011.56 702.84 1013.88 706.012 1015.74C710.392 1018.25 713.512 1020.22 717.538 1023.28C718.392 1023.94 722.267 1027.11 723.126 1025.5C723.783 1024.29 720.007 1021.37 719.1 1020.51C713.767 1015.83 707.876 1012.21 702.392 1007.63C698.57 1004.51 693.684 1001.79 689.356 999.372C683.919 996.304 683.419 996.856 679.038 991.569C676.32 988.299 674.007 982.158 672.195 978.033C655.539 941.044 636.159 912.408 598.668 893.836C568.923 879.139 534.449 874.56 501.537 874.211C476.98 874.211 458.559 874.211 440.641 879.695C351.412 912.607 301.241 973.002 182.868 951.007C176.727 951.007 182.415 945.523 188.555 945.523C313.566 972.949 385.035 874.211 487.955 857.752C455.898 841.293 412.466 835.809 380.862 824.84C326.559 835.809 277.945 841.299 220.875 819.356C220.422 813.871 220.422 813.871 220.422 813.871C277.496 835.814 326.11 830.33 367.676 813.871C323.941 787.147 289.113 748.549 273.764 703.554C268.982 689.513 275.779 695.148 280.456 704.007C286.899 716.288 290.722 725.143 298.826 737.174C364.05 834.054 493.092 842.862 602.146 852.07L604.057 852.273C578.593 817.294 552.021 783.981 530.078 747.19C526.453 741.05 528.62 742.81 520.969 741.503C486.849 735.31 473.261 727.915 444.068 711.357C432.292 704.665 418.802 701.847 405.469 700.337C398.625 699.529 391.026 700.691 383.526 700.285C375.677 699.883 364.198 698.873 356.704 696.259C343.214 690.925 331.438 680.556 323.438 669.587C319.511 664.102 334.709 678.493 334.813 678.545C351.62 691.378 361.537 691.628 381.969 693.696C390.376 694.55 408.24 695.456 407.032 684.284C406.329 677.789 395.407 670.446 390.073 664.508C373.667 646.087 359.224 621.53 349.813 599.836C357.964 599.737 355.147 598.529 359.428 606.18C373.22 630.841 389.725 656.508 411.616 676.487C421.782 685.747 425.709 691.585 438.793 699.236C463.252 713.528 490.933 724.501 519.616 725.809C515.288 713.481 509.751 701.049 505.272 688.465C497.423 666.372 491.783 646.039 485.745 623.695C482.224 610.559 474.875 609.148 464.204 600.444C454.693 592.543 446.537 583.283 437.579 575.933C430.079 569.793 423.084 567.329 414.276 563.303C405.068 559.074 422.932 563.053 424.541 563.553C448.848 571.808 468.677 595.813 475.271 597.974C482.364 600.287 477.687 582.021 477.135 578.297C473.161 553.333 467.172 528.928 467.271 503.964C467.271 499.734 466.719 495.761 472.203 497.823C474.516 506.078 477.687 517.151 478.844 526.156C481.458 546.187 486.24 564.604 489.516 584.334C491.078 593.844 492.885 604.312 500.286 612.115C507.734 619.261 514.38 604.115 516.693 599.938C523.037 574.522 526.657 592.844 535.214 568.334C534.209 558.87 540.548 545.99 538.433 563.198C538.381 586.048 528.569 574.672 524.542 609.901C517.246 626.813 503.657 625.198 512.412 650.765C513.673 654.437 519.157 674.869 527.71 690.874C534.605 703.807 544.516 712.765 545.726 715.484C558.507 744.218 559.767 704.463 568.876 691.677C577.48 679.953 583.423 670.994 596.407 662.489C604.36 657.609 608.787 661.38 605.266 662.338C601.943 663.296 598.521 669.385 596.407 672.104C586.339 685.036 582.464 691.932 577.787 707.385C571.797 730.286 568.73 745.833 579.245 769.541C583.068 778.098 594.344 788.364 600.885 796.817C610.198 808.843 620.011 820.12 629.369 832.296C632.791 836.723 641.447 850.113 647.989 848.853C651.463 848.197 654.182 844.124 655.89 841.707C664.192 829.077 663.088 810.858 663.541 795.962C663.995 780.962 664.297 769.94 666.911 755.044C669.328 741.356 669.078 727.966 671.593 713.878C673.255 704.518 676.323 689.066 671.593 679.956C668.02 674.118 659.614 667.477 654.333 662.342C640.693 648.503 629.219 635.263 616.489 620.926C601.443 603.967 590.771 602.91 575.572 589.874C560.775 577.192 553.78 557.363 553.427 540.098C553.177 526.962 558.109 539.139 558.911 544.025C561.729 559.978 559.463 567.025 573.406 580.864C586.843 594.15 603.25 598.176 617.947 612.822C624.239 619.265 647.587 647.244 664.75 655.145C668.323 656.806 672.5 663.801 675.37 663.348C679.041 662.744 681.057 653.733 682.614 648.151C686.995 632.599 688.656 606.833 685.583 590.577C682.765 575.531 683.62 579.858 686.542 567.88C685.989 568.234 687.198 564.609 686.693 565.01C667.214 537.328 649.302 508.693 635.662 477.39C576.329 469.239 512.61 453.734 487.595 392.437C491.569 390.828 494.538 393.999 500.481 401.192C516.735 436.671 555.287 451.973 595.095 460.577C607.679 463.296 620.361 465.359 632.538 467.171C613.814 418.15 613.767 405.468 618.293 351.974C619.298 346.687 621.813 344.776 626.043 345.13C622.069 392.537 627.1 418.761 640.688 455.546C653.068 489.062 670.933 519.41 690.912 548.603C693.079 532.098 695.339 509.598 701.079 501.297C702.49 507.385 699.516 561.537 698.209 570.797C696.245 584.937 699.818 591.734 700.022 605.067C700.376 630.379 690.86 655.594 688.548 680.911C687.188 696.963 685.678 710.958 683.261 726.911C681.35 739.844 688.699 741.203 699.87 735.318C721.813 723.693 722.266 691.531 746.173 676.083C748.486 674.672 754.173 672.005 760.116 669.692L760.621 675.682C758.657 676.437 757.298 676.942 757.147 676.989C736.663 685.896 732.991 707.64 722.876 724.749C713.012 741.056 705.36 745.385 692.027 758.067C676.776 772.613 680.855 786.05 681.506 804.921C682.412 830.285 680.751 846.041 677.027 870.65C675.063 883.484 676.272 886.905 685.631 897.729C703.798 917.656 720.658 940.86 734.095 964.213C735.809 967.182 736.71 970.406 737.616 973.724C738.168 975.687 739.376 977.75 740.033 979.864C741.642 985.099 742.345 994.76 742.548 1000.39C742.647 1002.46 741.996 1005.93 741.845 1008.24C741.642 1010.51 741.595 1011.76 741.189 1014.08C740.585 1017.25 740.434 1020.22 739.73 1023.29C737.819 1031.55 738.121 1041.41 738.069 1049.92C738.069 1050.92 737.918 1055.25 738.673 1055.75C740.335 1056.86 740.282 1048.66 740.282 1047.91C740.532 1039.75 740.532 1031.2 742.798 1023.35C743.605 1020.63 743.803 1017.86 744.558 1014.94C745.064 1012.98 745.465 1011.67 745.767 1009.56C746.121 1006.84 746.725 1004.83 747.277 1002.26C747.73 1000.15 747.829 995.765 748.032 993.4C748.387 988.317 748.736 983.083 749.189 978.051C749.642 972.614 752.058 969.145 754.522 964.411C757.34 958.973 759.959 953.541 762.423 947.952C772.793 924.499 784.418 898.228 791.412 864.608C755.074 850.015 741.386 815.436 729.058 782.275C730.969 769.239 728.756 766.572 738.167 776.285C748.183 803.212 764.943 834.312 794.38 848.103C799.412 814.633 799.667 774.321 790.453 723.441C788.943 715.29 785.62 704.619 781.745 692.239C767.953 648.301 750.141 594.603 776.36 519.919C770.37 496.413 736.25 450.971 727.037 422.085C714.355 387.711 704.542 347.449 708.214 303.263C713.199 293.195 715.36 305.981 715.261 315.341C711.74 357.466 723.766 382.68 735.845 415.393C736.652 417.606 737.507 419.773 738.361 421.934C785.163 419.872 857.637 402.456 877.414 347.956C885.466 339.503 882.649 340.758 883.352 350.372C859.497 408.903 797.997 422.794 741.032 431.399C751.75 455.206 767.958 480.066 782.802 501.503C787.281 490.128 786.578 490.232 793.12 478.3C798.255 472.363 805.703 472.712 801.172 481.821C766.344 545.685 768.609 586.957 792.313 654.595C794.526 660.938 798.151 663.303 804.693 658.923C822.813 645.235 829 613.729 826.636 593.496C824.573 575.881 823.365 566.22 825.933 548.303C826.287 545.99 828.099 530.485 832.427 531.443C834.891 531.995 832.631 544.177 832.427 546.088C830.412 563.197 830.714 572.109 833.084 589.015C834.844 601.244 834.948 608.239 833.688 620.52C833.589 621.426 833.485 622.333 833.386 623.286C831.021 639.488 822.417 660.879 815.115 675.879C805.553 695.358 809.631 700.843 816.678 719.764C817.334 721.629 818.037 723.488 818.74 725.353C843.5 862.339 797.855 903.566 787.537 1034.31C791.965 1045.33 794.886 1054.65 797.501 1066.17C798.709 1071.41 799.616 1076.79 800.772 1082.07C801.376 1084.89 802.183 1087.26 802.636 1090.18C803.491 1095.21 803.845 1101.35 804.199 1106.48C804.501 1110.46 804.751 1114.44 804.954 1118.41C805.105 1120.93 804.855 1124.35 804.751 1126.92C804.548 1132.3 802.136 1138.59 800.22 1143.63C799.011 1146.74 797.35 1149.86 796.142 1153.04C794.579 1157.06 793.173 1160.43 791.866 1164.61C791.11 1166.97 790.506 1168.69 790.001 1171.2C789.345 1174.32 788.793 1176.44 788.439 1179.71C787.887 1185.09 786.725 1187.71 787.584 1193.4C788.038 1196.46 788.241 1199.18 788.892 1202.26C788.991 1202.66 789.798 1207.09 789.798 1207.09C790.303 1208.05 790.704 1206.54 790.704 1205.78C790.652 1203.52 789.699 1200.6 789.496 1198.13C789.043 1193 788.34 1190.78 789.142 1185.4C789.496 1183.08 789.897 1180.82 790.251 1178.45C791.256 1171.01 794.631 1161.84 797.699 1154.95C799.663 1150.47 801.876 1146.29 803.689 1141.71C805.902 1136.08 807.767 1132.05 808.267 1125.81C808.517 1122.84 808.97 1120.28 809.022 1117.26C809.225 1108.4 809.777 1099.34 809.678 1090.48C809.626 1085.4 808.824 1080.92 809.022 1075.73C809.272 1070.45 810.027 1068.49 811.486 1063.45C830.762 998.983 852.048 948.005 898.048 897.519C907.46 886.697 908.616 883.274 906.652 870.441C902.928 845.832 901.319 830.077 902.173 804.712C902.829 785.79 906.902 772.352 891.652 757.857C878.314 745.175 872.126 740.039 860.803 724.539C851.543 711.909 853.053 710.649 872.48 727.154C876.105 730.222 879.98 733.045 883.855 735.107C894.975 740.998 902.376 739.685 900.464 726.701C898.1 710.748 896.537 696.805 895.178 680.701C892.912 655.389 883.402 630.174 883.704 604.857C883.907 591.518 887.48 584.726 885.464 570.586C884.157 561.326 881.188 507.174 882.647 501.086C888.839 509.992 891.001 535.461 893.318 552.065C931.064 497.664 956.731 445.372 962.569 383.665C963.475 374.102 966.798 365.498 966.694 355.43C968.71 350.951 971.121 347.982 972.986 354.321C970.772 442.493 950.137 493.681 900.013 564.787C899.054 566.548 898.101 568.262 897.143 570.022C900.315 584.719 901.07 574.402 898.049 590.402C894.981 606.709 896.69 632.475 901.018 647.975C902.58 653.564 904.643 662.522 908.263 663.173C911.132 663.626 915.258 656.631 918.883 654.97C936.044 647.121 959.347 619.136 965.685 612.647C980.331 598.001 996.737 594.027 1010.23 580.688C1024.22 566.896 1021.9 559.803 1024.72 543.85C1025.58 538.917 1030.46 526.74 1030.21 539.922C1029.85 557.182 1022.86 577.01 1008.06 589.698C992.863 602.735 982.191 603.792 967.143 620.75C954.408 635.094 942.935 648.329 929.299 662.166C924.064 667.302 915.659 673.995 912.039 679.781C907.31 688.89 910.377 704.338 912.039 713.702C914.554 727.796 914.304 741.129 916.721 754.869C919.336 769.718 919.591 780.738 920.091 795.786C920.544 810.682 919.435 828.901 927.742 841.532C929.456 843.948 932.169 848.027 935.643 848.678C942.185 849.938 950.84 836.547 954.263 832.12C963.622 819.943 973.44 808.667 982.747 796.642C989.242 788.189 1000.56 777.97 1004.39 769.366C1014.91 745.71 1011.83 730.111 1005.85 707.21C1001.16 691.808 997.288 684.866 987.225 671.928C985.111 669.209 981.637 663.121 978.366 662.163C974.845 661.204 979.272 657.434 987.225 662.314C1000.26 670.819 1006.15 679.726 1014.76 691.502C1023.87 704.283 1025.13 744.043 1037.91 715.308C1039.12 712.59 1049.03 703.631 1055.92 690.699C1064.43 674.694 1069.96 654.262 1071.22 650.59C1079.98 625.022 1066.34 626.636 1059.04 609.726C1049.78 588.288 1047.42 579.48 1048.42 567.6C1050.64 568.908 1053.11 569.913 1055.67 570.517C1056.63 579.225 1059.75 587.324 1066.94 599.757C1069.25 603.934 1075.9 619.085 1083.35 611.934C1090.74 604.085 1092.51 593.663 1094.12 584.153C1097.39 564.423 1102.22 546.007 1104.79 525.975C1105.94 516.965 1106.1 504.637 1108.41 496.382C1113.9 494.32 1113.29 498.346 1113.35 502.523C1113.44 527.487 1110.48 553.153 1106.45 578.116C1105.85 581.892 1101.16 600.111 1108.31 597.793C1114.91 595.627 1134.68 571.621 1159.04 563.372C1160.65 562.867 1178.52 558.893 1169.31 563.122C1160.5 567.148 1153.51 569.617 1146.01 575.752C1137.05 583.101 1128.85 592.362 1119.38 600.263C1108.76 608.971 1101.41 610.378 1097.84 623.514C1091.8 645.858 1086.12 666.139 1078.31 688.284C1073.83 700.868 1068.25 713.295 1063.97 725.628C1092.66 724.321 1120.29 713.399 1144.79 699.055C1157.83 691.404 1161.8 685.566 1171.97 676.306C1193.86 656.327 1210.37 630.66 1224.16 605.999C1228.43 598.348 1225.62 599.556 1233.77 599.655C1224.31 621.349 1209.87 645.906 1193.46 664.327C1188.17 670.218 1177.21 677.614 1176.5 684.103C1175.29 695.275 1193.16 694.369 1201.56 693.515C1222 691.452 1231.91 691.202 1248.72 678.364C1248.77 678.312 1260.14 670.713 1256.17 676.197C1248.17 687.218 1240.31 690.943 1226.72 696.077C1219.33 698.895 1207.8 699.703 1199.95 700.103C1192.45 700.458 1184.85 699.348 1178.01 700.156C1164.67 701.666 1151.18 704.536 1139.41 711.176C1110.17 727.682 1096.58 735.13 1062.51 741.322C1054.86 742.681 1057.02 740.869 1053.4 747.009C1031.4 783.801 1004.83 817.113 979.418 852.092L981.33 851.889C1090.39 842.68 1219.42 833.873 1284.65 736.993C1292.75 724.967 1296.58 716.107 1303.02 703.826C1307.7 694.92 1314.49 689.331 1309.66 703.373C1294.36 748.368 1259.48 786.966 1215.8 813.69C1257.37 830.149 1305.99 835.633 1363.05 813.69L1362.6 819.175C1305.53 841.117 1256.91 835.633 1202.61 824.659C1171.01 835.628 1127.62 841.118 1095.52 857.571C1198.44 874.03 1269.91 972.822 1394.92 945.342C1401.06 945.342 1406.75 950.826 1400.61 950.826C1282.19 972.769 1232.06 912.425 1142.83 879.514C1124.92 874.03 1106.5 874.03 1081.94 874.03C943.538 875.441 923.005 953.092 899.045 1005.74L899.28 1005.73ZM1412.92 511.519C1457.81 497.326 1477.79 454.749 1457.81 416.853C1412.92 426.316 1392.94 473.623 1412.92 511.519ZM638.987 1028.23C605.32 1005.13 600.388 958.319 631.893 930.439C661.336 950.669 666.315 997.475 638.987 1028.23ZM934.507 1044.23C971.346 1022.34 979.804 973.674 948.7 942.319C916.44 961.497 908.034 1010.16 934.507 1044.23ZM221.174 495.511C179.606 479.861 168.428 439.599 194.804 411.261C232.044 430.438 247.55 467.173 221.174 495.511ZM319.111 744.831C288.414 731.394 280.21 696.919 299.632 672.665C327.111 689.071 338.534 720.577 319.111 744.831ZM547.244 836.529C511.162 827.57 495.812 791.383 512.52 761.237C545.635 774.122 563.952 806.382 547.244 836.529ZM472.104 704.518C442.208 682.523 441.708 643.169 468.683 621.679C494.401 646.19 499.079 683.029 472.104 704.518ZM720.464 912.425C736.923 882.731 722.329 849.919 691.678 842.321C679.699 872.466 689.865 904.826 720.464 912.425ZM745.074 942.67C777.386 924.353 782.516 885.347 758.308 860.79C729.876 882.077 720.865 918.113 745.074 942.67ZM833.902 939.399C866.214 921.082 871.344 882.076 847.136 857.519C818.704 878.806 809.694 914.842 833.902 939.399ZM342.355 857.317C367.62 830.041 406.724 834.014 425.043 863.254C397.814 886.051 360.674 886.557 342.355 857.317ZM457.756 821.884C443.111 787.712 462.637 753.592 496.762 748.707C506.527 782.879 491.881 816.999 457.756 821.884ZM618.05 793.348C602.752 762.698 618.05 724.401 652.523 716.75C671.648 747.401 648.7 781.875 618.05 793.348ZM730.831 849.261C746.028 815.339 727.008 780.917 692.935 775.531C682.669 809.553 696.758 843.875 730.831 849.261ZM898.018 873.567C903.049 836.775 875.116 809.046 840.898 813.479C840.596 849.01 863.799 878 898.018 873.567ZM1038.83 674.074C1038.83 639.501 1008.59 613.579 974.06 622.235C974.06 652.481 1004.31 678.35 1038.83 674.074ZM1234.71 720.324C1266.67 730.59 1295.66 710.106 1297.17 679.007C1265.61 673.117 1236.22 689.226 1234.71 720.324ZM1155.6 858.124C1176.13 879.712 1214.18 869.75 1229.38 843.275C1206.53 826.718 1170.85 831.65 1155.6 858.124ZM1224.39 257.764C1194.75 280.16 1194.8 319.467 1222.03 340.655C1247.45 315.843 1251.62 278.952 1224.39 257.764ZM966.714 800.644C983.219 767.628 966.714 726.41 929.626 718.161C909.042 751.177 933.751 788.264 966.714 800.644ZM1048.74 762.899C1034.4 789.019 1055.34 822.284 1085.23 828.727C1094.09 801.951 1078.64 769.394 1048.74 762.899ZM538.931 966.566C569.983 990.071 562.587 1040.9 530.374 1064.5C505.562 1037.27 506.718 990.17 538.931 966.566ZM452.467 965.712C483.77 981.061 486.035 1027.01 461.78 1053.28C435.258 1033.6 428.212 991.982 452.467 965.712ZM493.232 1000.13C462.43 960.977 473.654 904.664 520.508 883.674C547.435 917.945 536.258 974.262 493.232 1000.13ZM420.462 985.737C439.79 1022.83 409.29 1068.73 367.164 1076.83C355.591 1038.99 378.336 993.841 420.462 985.737ZM600.688 977.18C560.324 970.94 535.563 930.929 551.923 892.18C587.251 897.664 612.011 937.674 600.688 977.18ZM463.395 882.816C483.526 919.456 454.135 966.056 412.212 975.165C399.78 937.624 421.473 891.925 463.395 882.816ZM379.499 920.613C401.592 961.326 377.437 1013.87 334.202 1021.57C312.108 980.858 336.264 928.317 379.499 920.613ZM118.299 978.29C122.778 1022.63 84.2257 1052.87 46.987 1050.15C41.0964 1010.09 76.7324 974.16 118.299 978.29ZM308.339 960.17C312.818 1004.51 274.266 1034.75 237.027 1032.03C231.136 991.972 266.772 956.04 308.339 960.17ZM228.266 966.764C218.349 1011.4 173.662 1036.26 133.954 1016.39C138.938 976.681 183.626 951.868 228.266 966.764ZM173.359 943.967C153.682 975.472 110.4 970.993 86.7964 939.487C114.327 912.514 153.682 912.514 173.359 943.967ZM1485.33 863.945C1471.49 903.101 1507.88 944.019 1550.41 946.128C1556.55 907.273 1527.86 866.055 1485.33 863.945ZM51.0657 816.992C38.8365 856.648 76.831 896.107 119.358 896.508C123.936 857.456 93.5924 817.445 51.0657 816.992ZM1127.21 965.752C1095.91 981.101 1093.64 1027.05 1117.9 1053.32C1144.42 1033.64 1151.47 992.023 1127.21 965.752ZM1086.45 1000.17C1117.25 961.017 1106.07 904.704 1059.22 883.715C1032.29 917.985 1043.47 974.303 1086.45 1000.17ZM28.167 593.68C8.89104 630.768 39.3389 676.669 81.4644 684.773C93.0373 646.929 70.2925 601.784 28.167 593.68ZM719.714 230.867C700.588 197.148 715.688 158.799 749.255 149.033C763.5 183.408 753.281 221.101 719.714 230.867ZM670.443 143.397C651.318 109.679 666.365 71.3294 699.932 61.5641C714.178 95.9387 704.01 133.632 670.443 143.397ZM600.99 91.3094C571.35 66.2987 572.255 25.1267 600.333 4.3454C625.599 31.6734 629.068 70.5747 600.99 91.3094ZM625.198 327.389C606.072 293.671 621.172 255.321 654.739 245.556C668.984 279.931 658.765 317.624 625.198 327.389ZM979.904 988.189C1021.98 980.085 1046.44 937.159 1027.76 897.096C990.972 904.19 966.514 947.123 979.904 988.189ZM630.878 218.843C635.909 182.051 607.976 154.321 573.758 158.755C573.456 194.285 596.659 223.276 630.878 218.843ZM894.291 810.029C899.322 773.237 871.39 745.508 837.171 749.941C836.869 785.472 860.072 814.463 894.291 810.029ZM792.275 770.117C797.306 733.325 769.374 705.648 735.155 710.029C734.853 745.56 758.056 774.551 792.275 770.117ZM692.931 684.612C698.067 651.899 729.014 635.393 757.098 647.872C748.238 678.268 721.015 697.091 692.931 684.612ZM756.696 634.737C769.379 599.811 747.988 566.847 713.618 563.877C705.769 598.555 722.326 631.768 756.696 634.737ZM707.123 553.159C744.263 553.664 768.42 522.659 759.915 489.195C724.634 493.169 698.618 519.695 707.123 553.159ZM307.63 403.492C269.682 436.659 216.89 426.44 195.703 385.071C235.766 358.097 286.443 362.123 307.63 403.492ZM750.056 476.867C722.327 501.627 683.775 493.976 668.275 463.127C697.515 442.996 734.556 446.017 750.056 476.867ZM701.442 303.8C664.098 286.789 655.744 246.68 681.212 219.701C714.426 240.035 726.91 276.821 701.442 303.8ZM532.548 171.191C571.803 165.05 591.882 125.847 577.242 89.9147C540.752 100.784 517.908 135.259 532.548 171.191ZM472.256 373.257C511.459 367.117 531.59 327.913 516.95 291.981C480.46 302.851 457.616 337.325 472.256 373.257ZM547.292 425.7C573.412 407.632 608.792 416.945 620.319 447.591C597.47 463.393 562.09 454.086 547.292 425.7ZM502.954 571.1C488.156 537.381 506.527 499.131 543.97 492.74C556.902 522.229 538.532 560.48 502.954 571.1ZM611.104 396.26C610.099 359.12 578.042 336.323 545.026 346.187C550.463 381.265 578.088 406.124 611.104 396.26ZM516.64 151.113C472.552 146.634 448.9 111.759 464.198 78.8427C505.364 87.7021 531.938 118.197 516.64 151.113ZM601.088 338.127C557 333.648 533.348 298.772 548.646 265.856C589.812 274.715 616.386 305.211 601.088 338.127ZM604.812 145.073C592.13 110.147 613.521 77.1827 647.891 74.2134C655.74 108.839 639.183 142.104 604.812 145.073ZM631.99 398.42C619.307 363.493 640.698 330.529 675.068 327.56C682.917 362.185 666.36 395.451 631.99 398.42ZM644.974 457.503C632.292 422.576 653.682 389.612 688.053 386.691C695.902 421.316 679.345 454.581 644.974 457.503ZM535.714 434.653C507.834 418.451 507.985 383.32 533.803 360.825C557.657 379.7 561.532 412.159 535.714 434.653ZM563.042 546.377C550.36 511.451 571.75 478.487 606.121 475.517C613.97 510.195 597.413 543.408 563.042 546.377ZM667.219 613.768C682.017 577.784 654.287 528.867 607.026 524.289C594.094 566.816 624.187 611.555 667.219 613.768ZM436.619 500.232C423.937 465.305 445.328 432.341 479.698 429.42C487.547 464.045 470.99 497.311 436.619 500.232ZM478.843 516.133C466.969 487.347 489.213 448.191 527.057 444.467C537.427 478.54 513.369 514.373 478.843 516.133ZM513.718 257.307C479.697 239.291 469.734 193.995 494.093 160.375C531.082 181.765 538.077 223.687 513.718 257.307ZM406.322 259.421C356.953 275.88 307.53 248.452 302.046 204.567C345.931 182.624 395.353 215.535 406.322 259.421ZM373.207 325.604C323.838 342.063 274.415 314.635 268.931 270.749C312.817 248.807 362.238 281.718 373.207 325.604ZM471.295 420.62C435.259 434.156 394.749 411.61 385.738 371.099C426.254 357.563 462.285 380.109 471.295 420.62ZM430.478 464.505C381.109 480.964 331.686 453.537 326.202 409.651C370.087 387.708 419.509 420.619 430.478 464.505ZM348.243 484.688C309.342 510.256 262.837 493.849 249.202 452.933C289.213 433.355 334.609 443.772 348.243 484.688ZM313.566 522.485C295.649 553.892 246.279 558.371 219.353 531.444C237.322 495.558 291.118 491.08 313.566 522.485ZM613.513 261.339C574.31 277.541 535.054 250.516 530.674 207.339C565.549 185.699 604.757 218.162 613.513 261.339ZM460.673 349.812C421.418 366.015 382.214 338.989 377.834 295.812C412.709 274.224 451.917 306.635 460.673 349.812ZM457.652 545.785C408.283 562.244 358.86 534.817 353.376 490.931C397.261 468.988 446.683 501.899 457.652 545.785ZM104.652 751.319C55.2826 767.777 5.85998 740.35 0.375977 696.464C44.2613 674.521 93.6826 707.433 104.652 751.319ZM410.092 666.767C395.447 632.595 414.972 598.475 449.144 593.589C458.91 627.761 444.264 661.881 410.092 666.767ZM776.172 204.967C776.172 168.128 808.432 140.497 845.219 149.707C845.219 181.967 812.959 209.545 776.172 204.967ZM524.839 683.527C524.839 646.688 557.099 619.111 593.885 628.267C593.885 660.527 561.625 688.105 524.839 683.527ZM460.573 741.251C456.094 776.881 416.032 808.084 380.401 794.699C380.401 754.636 420.464 727.865 460.573 741.251ZM352.271 901.344C313.869 912.313 269.984 884.885 269.984 846.489C302.896 835.52 346.781 862.948 352.271 901.344ZM600.791 735.824C585.441 705.173 600.791 666.876 635.264 659.225C654.441 689.876 631.441 724.351 600.791 735.824ZM200.484 527.917C166.916 540.501 129.172 519.511 120.765 481.767C158.511 469.183 192.077 490.173 200.484 527.917ZM203.505 663.651C169.937 676.234 132.193 655.244 123.786 617.5C161.531 604.917 195.098 625.906 203.505 663.651ZM179.901 694.755C151.818 727.468 105.062 732.145 76.9834 699.437C100.385 666.677 147.139 661.994 179.901 694.755ZM247.994 632.651C207.833 642.666 167.77 607.588 167.77 562.443C207.879 552.427 247.994 587.505 247.994 632.651ZM215.082 813.477C188.962 843.977 145.431 839.597 119.311 809.097C145.431 782.977 193.342 782.977 215.082 813.477ZM204.113 722.284C199.28 760.883 151.067 789.773 107.635 770.497C117.296 727.117 165.509 703.008 204.113 722.284ZM268.529 671.049C256.55 707.085 211.56 716.596 183.879 692.336C197.368 660.128 238.581 652.175 268.529 671.049ZM474.516 302.249C425.147 285.791 403.204 236.421 425.147 192.484C474.516 203.453 496.459 258.312 474.516 302.249ZM275.423 819.063C226.053 802.604 204.111 753.235 226.053 709.297C275.423 720.266 297.365 775.125 275.423 819.063ZM166.011 545.836C141.953 578.497 94.948 584.133 66.7653 560.883C91.5773 523.795 138.583 518.107 166.011 545.836ZM428.411 720.769C404.353 753.431 357.348 759.067 329.165 735.816C353.977 698.728 400.983 693.04 428.411 720.769ZM387.192 360.129C369.275 391.536 319.905 396.015 292.979 369.088C310.948 333.202 364.744 328.724 387.192 360.129ZM342.952 643.676C325.035 675.083 275.665 679.561 248.791 652.634C266.708 616.749 320.556 612.27 342.952 643.676ZM172.339 459.623C127.599 474.519 82.86 449.659 77.8746 409.899C117.681 390.019 162.375 419.862 172.339 459.623ZM341.232 616.489C296.492 631.385 251.753 606.526 246.768 566.765C286.528 546.885 331.268 576.729 341.232 616.489ZM264.435 939.796C215.065 923.337 193.123 873.968 215.065 830.031C264.435 840.999 280.945 895.859 264.435 939.796ZM204.091 934.312C160.153 939.796 116.268 901.4 121.804 852.025C165.689 841.056 209.575 879.452 204.091 934.312ZM1056.02 272.152C1042.69 234.308 1065.19 198.521 1101.32 195.354C1109.52 232.896 1092.16 268.985 1056.02 272.152ZM852.957 244.016C839.619 206.172 862.119 170.385 898.255 167.218C906.458 204.76 889.093 240.797 852.957 244.016ZM738.312 382.762C724.973 344.918 747.474 309.132 783.609 305.965C791.812 343.506 774.448 379.596 738.312 382.762ZM803.135 405.408C833.531 383.97 834.791 344.714 808.27 322.668C782.098 346.621 776.666 383.361 803.135 405.408ZM865.692 156.688C850.895 114.865 875.859 75.3595 915.916 71.8382C925.025 113.308 905.749 153.166 865.692 156.688ZM790.301 292.421C775.504 250.598 800.468 211.093 840.525 207.572C849.635 249.041 830.359 288.9 790.301 292.421ZM727.441 303.593C714.759 268.666 736.15 235.702 770.52 232.733C778.369 267.358 761.812 300.623 727.441 303.593ZM843.092 134.593C855.774 99.6661 834.384 66.7021 800.013 63.7327C792.164 98.4101 808.722 131.623 843.092 134.593ZM867.248 357.793C879.93 322.866 858.54 289.902 824.169 286.933C816.32 321.558 832.878 354.823 867.248 357.793ZM853.305 93.4194C891.707 74.4981 900.259 29.9087 874.092 -0.0859375C839.972 22.5127 827.139 63.4247 853.305 93.4194ZM880.431 322.659C918.832 303.738 927.384 259.149 901.217 229.154C867.097 251.753 854.264 292.665 880.431 322.659ZM632.577 171.326C667.301 158.139 700.619 179.076 704.041 213.399C669.515 221.702 636 205.649 632.577 171.326ZM769.311 430.713C804.035 417.525 837.352 438.463 840.775 472.786C806.248 481.088 772.785 465.036 769.311 430.713ZM1092.71 173.446C1118.88 137.514 1106.35 90.3061 1069.05 73.1434C1048.42 110.685 1055.41 156.283 1092.71 173.446ZM1174.89 400.833C1208.31 371.541 1206.4 322.723 1173.78 297.811C1145.4 329.921 1142.28 375.921 1174.89 400.833ZM801.613 611.299C830.301 587.695 828.739 548.439 800.655 528.362C776.248 554.179 773.53 591.222 801.613 611.299ZM844.895 620.508C880.072 608.581 892.452 571.289 873.28 542.601C841.321 558.153 825.723 591.82 844.895 620.508ZM881.28 714.013C893.962 679.086 872.572 646.122 838.201 643.153C830.352 677.83 846.91 711.044 881.28 714.013ZM1116.71 277.52C1123.3 245.613 1165.52 224.624 1200.55 243.702C1189.58 279.333 1147.65 296.244 1116.71 277.52ZM796.973 516.826C803.567 484.92 845.791 463.982 880.817 483.009C869.849 518.64 827.973 535.55 796.973 516.826ZM830.036 415.066C866.473 407.869 895.812 434.093 893.448 468.462C858.016 470.879 827.672 449.436 830.036 415.066ZM1050.62 345.061C1034.92 309.378 1061.39 275.608 1103.87 272.64C1113.53 308.072 1093.1 342.093 1050.62 345.061ZM1510.06 531.168C1485.81 503.438 1443.33 503.938 1421.69 535.095C1442.93 559.303 1485.35 558.849 1510.06 531.168ZM1304.93 365.288C1280.67 337.605 1238.25 338.058 1216.61 369.215C1237.85 393.469 1280.27 393.021 1304.93 365.288ZM1246.6 198.408C1222.35 170.725 1179.87 171.178 1158.23 202.335C1179.47 226.589 1221.89 226.089 1246.6 198.408ZM1065.63 391.461C1041.37 363.732 998.893 364.232 977.305 395.388C998.545 419.596 1040.97 419.143 1065.63 391.461ZM1074.49 571.128C1089.28 537.409 1070.91 499.158 1033.52 492.768C1020.53 522.257 1038.96 560.508 1074.49 571.128ZM988.43 348.941C973.534 311.998 998.597 277.077 1038.91 273.952C1048.07 310.64 1028.74 345.816 988.43 348.941ZM973.133 331.228C986.169 290.364 964.174 251.758 928.846 248.29C920.794 288.853 937.804 327.76 973.133 331.228ZM950.487 396.452C963.17 361.525 941.779 328.561 907.409 325.592C899.56 360.217 916.117 393.482 950.487 396.452ZM932.471 457.55C945.154 422.624 923.763 389.66 889.393 386.738C881.544 421.364 898.101 454.629 932.471 457.55ZM1024.72 484.124C1037.4 449.197 1016.01 416.233 981.643 413.264C973.794 447.889 990.352 481.154 1024.72 484.124ZM1014.35 546.478C1027.03 511.552 1005.64 478.588 971.274 475.618C963.425 510.296 979.982 543.509 1014.35 546.478ZM910.175 613.869C895.378 577.885 923.107 528.968 970.368 524.39C983.353 566.917 953.259 611.656 910.175 613.869ZM1030.36 263.589C1043.04 228.662 1021.65 195.698 987.279 192.729C979.43 227.406 995.987 260.62 1030.36 263.589ZM1094.68 498.869C1107.36 463.942 1085.97 430.978 1051.6 428.009C1043.75 462.686 1060.3 495.9 1094.68 498.869ZM1126.84 221.109C1159.95 201.53 1167.85 155.885 1141.99 123.421C1106.06 146.473 1100.97 188.697 1126.84 221.109ZM1087.63 423.229C1120.75 403.65 1128.65 357.953 1102.78 325.494C1066.85 348.546 1061.77 390.77 1087.63 423.229ZM1115.06 480.098C1151.25 466.911 1167.35 423.478 1147.87 386.792C1108.31 402.896 1095.58 443.458 1115.06 480.098ZM1146.92 464.598C1196.29 481.057 1245.71 453.63 1251.2 409.744C1207.31 387.801 1157.89 420.712 1146.92 464.598ZM1254.67 329.012C1289.9 350.902 1331.97 336.861 1344.3 301.782C1308.11 285.022 1267 293.933 1254.67 329.012ZM1326.13 540.692C1376.56 542.452 1405.4 499.072 1389.79 451.41C1342.43 456.093 1310.53 493.03 1326.13 540.692ZM1289.49 416.437C1318.58 437.978 1365.54 422.177 1379.33 386.692C1348.48 361.077 1297.39 378.692 1289.49 416.437ZM1229.2 519.005C1258.29 540.494 1305.25 524.745 1319.03 489.26C1288.13 463.645 1237.1 481.26 1229.2 519.005ZM925.322 238.285C975.499 224.446 1001.22 174.118 981.286 134.613C932.567 140.853 909.974 195.758 925.322 238.285ZM1119.73 545.832C1169.1 562.29 1218.53 534.863 1224.01 490.977C1180.13 469.034 1130.7 501.946 1119.73 545.832ZM1258.89 287.152C1304.39 285.943 1336.75 248.6 1328.15 210.906C1285.52 205.974 1254.82 247.797 1258.89 287.152ZM1172.23 589.765C1215.36 604.161 1258.55 580.151 1263.37 541.801C1224.97 522.624 1181.84 551.416 1172.23 589.765ZM1214.26 612.713C1187.98 586.442 1149.03 591.926 1131.87 621.874C1160.01 643.568 1197.09 642.661 1214.26 612.713ZM1065.49 645.926C1065.49 619.202 1042.09 599.224 1015.42 605.864C1015.42 629.265 1038.78 649.244 1065.49 645.926ZM1116.28 882.873C1096.15 919.513 1125.54 966.113 1167.46 975.222C1179.89 937.681 1158.15 891.982 1116.28 882.873ZM1480.65 783.176C1485.79 824.446 1532.19 860.53 1573.45 845.129V841.91C1571.39 797.27 1525.99 768.082 1480.65 783.181V783.176ZM1082.52 753.03C1087.7 794.301 1134.15 830.432 1175.42 814.932C1175.42 768.478 1128.97 737.53 1082.52 753.03ZM1225.2 901.444C1263.6 912.412 1307.48 884.985 1307.48 846.589C1274.57 835.62 1230.69 863.048 1225.2 901.444ZM981.103 739.444C997.608 706.428 981.103 665.261 944.015 656.96C923.431 689.976 948.14 727.064 981.103 739.444ZM1374.01 662.345C1420.76 679.657 1473.35 650.772 1485.03 598.933C1432.44 581.621 1385.69 610.459 1374.01 662.345ZM1402.95 688.616C1433.39 724.094 1484.03 729.178 1514.47 693.699C1489.11 658.22 1438.43 653.136 1402.95 688.616ZM1329.52 632.553C1373.41 643.522 1417.29 605.126 1417.29 555.756C1373.41 544.735 1329.52 583.182 1329.52 632.553ZM1362.43 808.153C1395.34 846.554 1450.2 841.065 1483.17 802.669C1450.25 769.757 1389.86 769.757 1362.43 808.153ZM1373.4 722.346C1378.23 760.945 1426.45 789.836 1469.88 770.56C1460.22 727.18 1412.01 703.07 1373.4 722.346ZM1480.95 568.546C1492.87 604.582 1537.87 614.093 1565.6 589.833C1552.06 557.625 1510.9 549.672 1480.95 568.546ZM1309.03 671.114C1320.95 707.15 1365.95 716.661 1393.68 692.401C1380.14 660.193 1338.98 652.24 1309.03 671.114ZM1302.09 819.128C1351.45 802.669 1373.4 753.3 1351.45 709.362C1302.09 720.331 1280.14 775.19 1302.09 819.128ZM1142.95 720.336C1164.89 764.221 1219.75 780.68 1258.2 758.737C1236.26 709.368 1181.41 692.909 1142.95 720.336ZM1475.77 738.757C1493.73 770.164 1543.05 774.642 1569.98 747.715C1552.01 711.83 1498.21 707.351 1475.77 738.757ZM1213.37 645.252C1231.28 676.658 1280.65 681.137 1307.58 654.21C1289.61 618.325 1235.81 613.846 1213.37 645.252ZM1236.21 616.564C1280.95 631.46 1325.69 606.6 1330.63 566.84C1290.87 546.96 1246.13 576.803 1236.21 616.564ZM1200.13 920.684C1178.04 961.397 1202.19 1013.94 1245.43 1021.64C1267.52 980.929 1243.37 928.388 1200.13 920.684ZM1271.35 960.241C1266.87 1004.58 1305.42 1034.83 1342.66 1032.11C1348.55 992.042 1312.91 956.11 1271.35 960.241ZM1351.42 966.835C1361.34 1011.47 1406.02 1036.33 1445.73 1016.46C1440.8 976.752 1396.11 951.939 1351.42 966.835ZM1313.02 939.861C1362.39 923.403 1384.33 874.033 1362.39 830.096C1313.02 841.065 1296.56 895.924 1313.02 939.861ZM1373.36 934.377C1417.25 939.861 1461.13 901.465 1455.65 852.09C1411.76 841.122 1367.88 879.517 1373.36 934.377ZM1406.27 949.122C1426.86 981.986 1472.15 977.305 1496.86 944.44C1468.02 916.257 1426.86 916.257 1406.27 949.122Z" fill="white"/>
</svg>
