<svg width="1573" height="1600" viewBox="0 0 1573 1600" fill="none" xmlns="http://www.w3.org/2000/svg">
<path d="M1568.99 1165.37C1489.34 1108.08 1511.92 1024.94 1505.29 944.856C1502.69 913.952 1493.76 852.314 1451.48 846.422H1451.49C1459.3 836.878 1468.14 828.041 1477.91 820.043C1503.27 799.639 1534.4 791.44 1560.63 773.427C1561.2 772.938 1561.39 772.193 1561.13 771.531C1560.86 770.87 1560.17 770.409 1559.38 770.353C1555.8 770.097 1552.21 770.097 1548.62 770.353C1553.81 766.085 1555.73 758.742 1547.76 755.752C1504.72 739.444 1457.64 728.006 1422.28 701.627C1460.14 687.882 1484.06 644.601 1493.96 612.07C1503.86 579.544 1505.39 547.957 1509.81 515.687C1515.48 474.529 1531.4 435.012 1556.4 400.006C1556.45 399.84 1556.45 399.667 1556.4 399.495L1559.77 397.444C1561.69 396.077 1559.77 394.031 1557.85 394.287C1474.84 403.847 1412.58 391.469 1336.87 359.627C1288.26 339.141 1239.64 316.084 1185.46 310.538H1185.45C1178.34 297.588 1175.45 283.125 1177.09 268.791C1177.67 261.877 1194.58 224.227 1186.7 213.638C1183.34 209.197 1182.09 207.407 1179.3 206.468C1178.72 206.256 1178.06 206.256 1177.47 206.468C1175.76 206.179 1174.03 205.979 1172.29 205.873C1169.89 205.873 1168.74 209.375 1171.33 209.63L1172.09 210.058V210.053C1143.62 232.93 1109.29 249.281 1072.08 257.69C1070.36 209.879 1012.52 179.916 970.721 159.174C935.656 142.099 901.74 125.025 875.607 97.0224C847.841 67.7426 836.025 35.2996 819.5 0.978535C818.537 -0.900084 815.466 0.211521 815.272 1.91786C815.078 3.62417 815.272 3.71309 815.272 4.56354H815.265C814.546 4.71361 813.927 5.1138 813.539 5.67516C791.827 44.6035 767.709 78.8421 726.394 103.597C694.112 122.806 657.506 135.356 625.031 154.22C587.751 175.902 548.169 209.54 549.226 251.632C526.858 250.203 505.647 242.249 488.889 229.005C469.674 214.493 468.041 211.931 443.634 205.7C441.138 205.099 439.6 208.434 442.289 209.201C465.157 215.688 475.916 243.779 494.268 255.984C507.073 263.782 521.747 268.806 537.122 270.668C596.688 279.717 648.186 258.29 704.008 281.94C687.958 290.811 673.151 301.359 659.91 313.354C622.775 349.504 601.526 396.325 600.056 445.253L595.54 446.704C545.387 422.121 489.373 425.194 435.187 436.805C415.972 440.901 396.756 446.198 378.116 451.489V451.483C383.57 423.603 396.018 397.169 414.532 374.137C429.037 356.296 446.045 339.988 455.847 319.246C475.062 280.061 466.224 244.116 441.241 209.457C440.653 208.49 439.302 208.128 438.214 208.645C437.125 209.162 436.719 210.368 437.301 211.335C453.877 242.677 453.382 279.044 435.956 310.024C394.742 285.096 330.271 300.887 287.518 314.293C204.796 339.905 132.162 375.421 41.3686 358.257C36.0831 357.318 30.9915 362.781 33.8751 366.794L31.3731 364.576C29.4528 363.209 26.1876 365.516 28.2017 367.139C81.619 411.103 91.1339 492.635 97.7632 552.397C104.106 609.512 107.853 674.563 150.412 720.837C142.812 727.751 134.724 734.22 126.199 740.217C95.073 760.704 63.2731 764.806 26.5684 772.232C23.272 772.738 20.7825 775.178 20.5324 778.14C20.2822 781.108 22.3338 783.843 25.5114 784.782C33.9808 787.489 42.9382 788.762 51.9326 788.54C72.3922 795.654 92.2706 804.042 111.406 813.64C127.963 823.284 143.068 834.756 156.367 847.789C106.307 858.205 83.345 907.55 77.297 949.636C71.2422 991.721 81.4253 1036.54 73.9317 1079.74C65.5749 1127.56 36.1766 1160.68 2.25496 1196.11C-5.33241 1203.96 7.92208 1215.06 16.9543 1209.51C21.7581 1206.52 26.562 1203.28 30.6903 1199.95C59.5134 1192.95 86.1284 1184.25 118.699 1186.89C161.552 1190.48 201.421 1206.61 240.909 1221.04C290.581 1238.63 353.031 1261.59 406.354 1244.86C440.269 1289.68 465.438 1333.73 437.004 1389.22C435.947 1391.36 439.787 1392.38 440.944 1390.67C464.77 1357.29 474.19 1323.06 457.758 1284.72L457.764 1284.72C449.138 1267.21 437.754 1250.88 423.943 1236.23C424.969 1234.17 424.775 1231.8 423.424 1229.89C422.073 1227.99 419.746 1226.82 417.219 1226.75H415.968L414.53 1225.05V1225.04C396.478 1202.44 384.124 1176.64 378.307 1149.4C396.558 1154.44 414.911 1159.47 433.457 1163.4C488.413 1174.93 545.002 1178.17 595.443 1152.48C598.182 1151.52 600.34 1149.56 601.366 1147.11C602.392 1144.65 602.192 1141.93 600.822 1139.6C599.446 1137.29 597.025 1135.6 594.167 1134.96C591.308 1134.32 588.274 1134.79 585.835 1136.26C513.009 1167.16 440.951 1144.37 368.413 1125.76C335.75 1117.22 299.721 1108 265.224 1109.71C283.865 1091.95 289.437 1061.22 291.934 1037.48C299.427 966.791 271.085 853.331 372.736 826.012V826.017C374.056 825.612 375.313 825.067 376.483 824.394C389.112 894.855 419.242 961.929 464.685 1020.75C512.723 1082.98 574.98 1125.16 657.8 1144.2C747.347 1164.78 852.836 1181.34 943.918 1161.28H943.911C955.671 1158.68 967.248 1155.49 978.595 1151.71C984.262 1186.63 987.34 1214.03 963.032 1247.84C942.091 1276.78 908.845 1291.89 878.102 1310.85C838.233 1335.43 812.869 1362.07 813.732 1405.44C803.549 1363.18 777.991 1340.04 736.007 1314.43C705.357 1295.73 676.923 1277.64 657.318 1248.6C637.715 1219.58 631.855 1185.35 622.247 1151.97C620.596 1147.42 615.56 1144.56 610.225 1145.12C604.896 1145.68 600.755 1149.51 600.342 1154.27C601.443 1205.43 624.187 1254.36 664.043 1291.3C676.115 1301.71 689.381 1310.98 703.625 1318.95C648.574 1341.92 597.94 1320.07 539.045 1329.37C523.42 1331.5 508.521 1336.7 495.429 1344.57C476.213 1356.61 465.642 1384.78 442.78 1391.26C440.184 1391.95 440.76 1395.45 443.549 1394.77C467.28 1388.87 470.065 1386.23 488.323 1371.37H488.317C505.212 1357.89 526.754 1349.88 549.422 1348.67C547.308 1395.45 595.153 1431.22 636.66 1453.25C669.906 1470.32 705.834 1483.81 736.865 1504.47C772.606 1528.29 793.836 1560.39 813.727 1595.23V1595.22C814.033 1595.77 814.678 1596.1 815.366 1596.08V1599.07C815.366 1600.09 819.018 1600.52 819.688 1599.07C834.869 1566.62 846.878 1534.27 871.854 1506.35C900.678 1474.59 937.57 1457.6 976.101 1438.05C1014.63 1418.51 1070.93 1387.77 1072.18 1342.44V1342.43C1109.18 1351.42 1143.32 1367.93 1171.91 1390.67C1169.41 1390.67 1169.51 1394.68 1171.91 1394.43C1173.75 1394.29 1175.57 1394.07 1177.38 1393.74C1177.94 1393.94 1178.56 1393.94 1179.11 1393.74C1182 1392.8 1183.44 1391.1 1186.7 1386.66C1193.91 1377.01 1181.22 1352.51 1179.5 1343.97C1172.85 1317.5 1180.13 1289.79 1199.29 1268.67C1247.9 1273.88 1293.34 1260.13 1337.73 1241.95C1366.56 1229.83 1394.52 1215.57 1424.2 1204.04C1464.07 1188.42 1501.07 1184.75 1543.15 1181.42C1546.93 1182.91 1550.85 1184.08 1554.87 1184.92C1565.34 1186.46 1580.23 1173.4 1568.99 1165.37ZM1441.97 823.883H1441.98C1425.31 841.33 1410.31 859.977 1397.11 879.631C1381.13 900.464 1360.41 918.087 1336.3 931.366C1334.47 926.669 1332.46 922.061 1330.15 917.448C1312.95 882.871 1275.67 839.418 1231.38 828.408C1233.11 816.202 1234.36 803.991 1234.93 791.952V769.586C1275.77 756.864 1310.54 717.167 1327.64 684.981C1337.13 666.472 1344.03 647.007 1348.2 627.016C1358.87 641.784 1366.27 673.46 1372.6 682.936L1372.61 682.93C1383.14 698.043 1396.65 711.344 1412.48 722.205C1448.15 746.038 1489.07 762.906 1532.58 771.722C1498.18 778.892 1464.46 802.88 1441.98 824.141L1441.97 823.883ZM1192.17 1146.25C1124.15 1166.31 1067.27 1167.08 1004.92 1140.96C1128.19 1088.71 1203.61 971.835 1227.24 852.399H1227.25C1243.66 861.72 1258.97 872.475 1272.98 884.498C1291.04 902.322 1304.55 923.411 1312.57 946.309C1310.45 949.383 1310.74 953.735 1315.55 954.846C1318.16 963.111 1320.31 971.487 1321.98 979.947C1330.63 1023.23 1331.59 1075.31 1369.06 1107.41C1367.25 1105.86 1364.84 1105 1362.33 1105.02C1303.53 1103.99 1246.75 1130.37 1192.28 1146.51L1192.17 1146.25ZM1394.7 405.132C1437.36 417.682 1488.57 425.874 1531.33 411.451C1500.96 437.063 1489.34 479.749 1482.81 515.432C1476.28 551.115 1475.22 589.194 1460.13 623.599C1447.83 651.773 1427.75 667.909 1405.08 686.517V686.522C1399.77 680.887 1395.01 674.861 1390.86 668.509C1378.37 649.472 1376.83 617.285 1351.47 614.04C1359.73 572.121 1363.28 528.667 1382.02 488.716C1383.17 486.154 1379.23 485.048 1377.31 486.409C1336.38 515.607 1332.44 564.696 1324.66 607.809C1318.22 643.153 1309.87 674.056 1285.36 703.17H1285.37C1270.43 718.894 1252.95 732.561 1233.49 743.722C1218.98 618.737 1123.48 517.058 997.617 461.993C1061.22 432.285 1120.69 433.136 1190.54 453.456C1245.5 469.674 1301.89 496.142 1360.88 494.864C1371.74 494.864 1377.5 480.008 1365.11 477.279C1327.26 468.742 1289.22 456.792 1250.97 445.603C1267.88 406.329 1231.76 367.234 1204.28 336.414L1202.55 334.363C1268.37 354.678 1328.42 385.671 1394.71 405.134L1394.7 405.132ZM1173.73 216.715C1171.9 232.594 1156.53 268.705 1155.76 275.793V275.798C1153.85 292.383 1157.49 309.102 1166.23 323.859C1175.88 338.355 1187.08 351.993 1199.67 364.583C1219.5 385.314 1229.8 411.932 1228.5 439.111C1195.17 429.285 1160.88 422.253 1126.08 418.112C1077.27 413.16 1019.14 421.186 988.303 457.725H987.628C1013.47 422.976 997.235 371.752 970.719 340.422C951.892 319.946 929.118 302.599 903.465 289.199C962.55 270.246 1021.35 288.343 1081.4 272.124H1081.39C1118.31 263.454 1150.82 243.923 1173.63 216.716L1173.73 216.715ZM599.474 250.007L599.48 250.013C587.289 251.186 575.035 251.78 562.775 251.803C595.634 175.734 664.332 160.366 735.714 117.852C774.914 94.2905 805.945 62.0212 815.654 21.3797C819.307 66.9671 851.394 110.592 889.825 139.105V139.111C915.358 156.118 942.448 171.198 970.815 184.188C1010.78 204.93 1029.9 227.302 1054.31 260.256C1035.22 262.69 1015.9 263.29 996.661 262.051C959.481 259.917 918.455 256.332 891.745 281.86C856.773 260.856 825.354 238.151 819.012 191.196C819.012 189.573 816.61 189.49 815.359 190.34L815.365 190.335C815.315 189.568 815.315 188.801 815.365 188.034C815.94 185.216 810.561 184.788 809.792 187.433C797.876 227.813 760.315 249.667 722.647 271.1C692.19 241.047 641.463 246.593 599.38 250.013L599.474 250.007ZM656.638 351.943C677.774 320.785 707.754 302.77 740.8 282.45C781.058 257.695 804.113 234.985 813.822 194.687C812.765 240.959 841.106 268.021 883.097 293.038C914.61 311.736 946.798 327.87 966.396 358.006C987.632 390.704 983.885 418.962 978.024 453.539C959.947 446.414 941.401 440.255 922.491 435.097C824.912 410.842 721.562 411.943 624.652 438.26C631.858 408.292 638.1 379.01 656.553 351.949L656.638 351.943ZM567.866 457.98C498.498 487.688 442.966 534.815 419.14 601.662C418.509 603.324 418.509 605.119 419.14 606.781C385.145 656.937 368.444 714.847 371.102 773.342C275.025 744.829 298.08 638.37 292.219 568.449C290.493 543.86 285.977 509.711 265.897 490.674C299.718 491.953 335.265 482.137 366.778 474.457C433.839 457.21 500.518 436.718 567.868 457.977L567.866 457.98ZM95.8391 431.173C80.9459 399.925 63.6501 387.548 36.5596 368.422C93.0545 396.935 152.715 384.045 211.228 364.492C248.695 351.859 285.012 335.979 323.737 326.585C359.96 318.048 394.45 321.038 430.479 320.099H430.473C419.683 337.812 407.686 354.915 394.543 371.322C374.508 395.567 364.037 425.007 364.756 455.077C355.148 457.55 346.505 459.946 337.371 462.08C298.458 471.218 259.934 471.812 220.352 476.337V476.332C219.408 476.526 218.676 477.182 218.469 478.027C218.263 478.866 218.626 479.739 219.395 480.261C226.638 483.496 234.276 485.992 242.164 487.687C274.252 514.577 272.713 571.181 270.987 622.321C231.787 636.405 206.135 666.803 178.368 694.549L166.647 706.071C134.171 640.674 130.618 578.012 118.608 508.263C114.686 481.817 107.036 455.917 95.8393 431.172L95.8391 431.173ZM242.262 1112.44H242.256C234.462 1114.11 226.894 1116.51 219.681 1119.61C218.049 1120.38 217.661 1123.28 219.681 1123.54C255.805 1127.81 291.451 1127.81 327.092 1135.84C339.583 1138.66 351.975 1141.99 364.372 1145.4C363.727 1173.75 373.141 1201.55 391.275 1224.88C349.216 1223.37 307.614 1216.56 267.72 1204.64C229.289 1192.35 191.822 1177.23 151.564 1170.49H151.558C121.422 1164.95 90.3022 1165.21 60.2845 1171.27C83.6409 1141.87 97.9211 1107.55 101.699 1071.72C110.249 993.689 76.8162 905.073 161.366 852.91H161.359C173.269 865.438 183.433 879.195 191.621 893.89C212.274 930.602 219.581 991.812 271.653 1002.57C272.235 1046.54 268.775 1090.25 242.255 1112.45L242.262 1112.44ZM368.026 805.104C317.391 816.287 286.266 852.659 273.969 896.623C268.784 915.065 269.741 942.383 270.798 971.752C230.06 930.344 221.509 871.868 175.971 830.377L175.965 830.372C152.678 808.74 124.875 791.337 94.1059 779.148C115.035 769.911 134.357 758.038 151.464 743.888C193.735 709.739 231.496 669.359 270.31 631.881C268.314 653.763 268.959 675.774 272.236 697.534C282.707 743.377 313.263 782.906 366.293 794.773C368.401 795.29 370.621 795.29 372.729 794.773C372.729 798.102 373.304 801.348 373.692 804.677C371.797 804.416 369.858 804.533 368.019 805.016L368.026 805.104ZM714.864 1144.8C629.733 1132.93 556.619 1107.32 499.651 1047.56C431.59 973.561 390.564 882.864 382.051 787.603C383.503 784.646 383.284 781.261 381.476 778.465C376.685 720.221 390.965 661.99 422.597 610.794C424.949 612.439 427.983 613.112 430.929 612.656C433.881 612.2 436.47 610.655 438.065 608.404C475.633 551.545 519.731 508.091 587.467 480.345C670.252 446.124 762.632 434.563 852.832 447.135C1015.59 470.529 1180.94 580.146 1205.92 731.938C1207.55 741.926 1208.7 752.086 1209.47 762.329C1206.42 765.386 1206.67 770.055 1210.04 772.834C1210.83 792.293 1210.03 811.779 1207.64 831.139C1207.35 832.295 1207.35 833.49 1207.64 834.64C1191.98 956.38 1116.66 1077.27 993.102 1130.2L986.953 1132.59L986.959 1132.59C986.234 1132.29 985.402 1132.28 984.676 1132.58C983.957 1132.88 983.419 1133.45 983.213 1134.13C897.987 1166.57 803.548 1157.35 714.869 1144.72L714.864 1144.8ZM964.665 1419.36H964.659C936.148 1432.17 909.195 1447.56 884.243 1465.28C848.408 1493.46 818.528 1535.29 814.876 1578.74C804.405 1533.24 767.606 1499.17 722.834 1474.84C653.854 1437.36 594.187 1418.41 562.768 1348.32V1348.32C576.992 1348.5 591.203 1349.33 605.333 1350.8C645.785 1354.39 691.803 1356.27 720.626 1329.29C759.057 1350.63 797.487 1371.97 808.922 1412.61C809.785 1415.68 815.165 1414.4 814.589 1411.41C814.546 1410.9 814.546 1410.39 814.589 1409.88C815.284 1410.26 816.147 1410.31 816.885 1410C817.623 1409.69 818.136 1409.06 818.236 1408.34C824.385 1361.72 855.416 1339.02 890.1 1318.1C917.673 1346.27 965.135 1339.61 1003.37 1337.31L1003.38 1337.31C1020.45 1336.26 1037.59 1336.92 1054.49 1339.28C1029.51 1374.54 1006.55 1397.59 964.947 1419.27L964.665 1419.36ZM1171.9 1380.51C1149.59 1354.51 1118.2 1335.84 1082.64 1327.41C1022.02 1311.36 963.224 1329.29 903.364 1310.34C927.866 1295.91 952.841 1281.06 971.193 1258.51C995.501 1228.72 1011.93 1180.82 990.409 1146.85H991.272C1022.21 1179.88 1077.74 1186.97 1123.95 1182.27L1123.96 1182.28C1159.37 1178.06 1194.25 1170.83 1228.11 1160.68C1230.04 1184.77 1222.54 1208.72 1206.88 1228.47C1201.5 1235.12 1195.54 1241.35 1189.68 1247.67H1189.67C1183.98 1248.91 1179.99 1253.48 1180.07 1258.68C1174.82 1264.6 1170.23 1270.95 1166.33 1277.64C1158.53 1290.53 1154.66 1305.01 1155.09 1319.64C1155.18 1325.62 1168.16 1362.41 1171.9 1380.51ZM1413.34 1185.61C1346.09 1209.77 1289.12 1244.17 1216.96 1247.07C1240.98 1218.9 1265 1186.71 1251.07 1153.76C1288.64 1142.67 1326.11 1130.89 1363.58 1122.69H1363.58C1367.12 1121.96 1369.99 1119.67 1371.18 1116.61C1372.37 1113.56 1371.71 1110.18 1369.44 1107.66C1371.84 1109.71 1374.33 1111.67 1377.02 1113.55C1378.06 1114.35 1379.58 1114.41 1380.7 1113.7C1381.82 1112.99 1382.24 1111.7 1381.73 1110.57C1358.97 1060.11 1358.97 1005.13 1343.98 953.823C1376.26 945.286 1401.63 914.805 1418.73 890.733C1426.41 880.062 1433.71 869.39 1441.4 859.057C1497.13 918.39 1461.19 990.701 1473.78 1062.07C1479.44 1094.43 1490.69 1140.7 1519.51 1166.48C1483.96 1162.73 1445.82 1174 1413.34 1185.69L1413.34 1185.61Z" fill="white"/>
</svg>
