<svg width="1251" height="1144" viewBox="0 0 1251 1144" fill="none" xmlns="http://www.w3.org/2000/svg">
<path d="M1055.47 1086.29C1501.4 501.474 783.042 -295.98 198.416 220.1C56.9223 357.594 6.28225 577.607 75.6036 762.794C237.177 1223.78 910.617 1188.23 978.297 694.168C1015.92 272.662 465.244 67.0483 258.617 454.862C180.117 614.862 258.117 831.048 425.564 894.728C587.31 962.291 796.577 853.666 812.87 674.595C841.37 488.915 627.564 325.968 462.444 430.275C333.256 498.463 323.257 696.702 446.818 774.902C567.63 861.027 756.952 748.964 722.072 598.902C711.134 544.714 683.134 511.59 690.446 504.339C778.884 533.088 783.697 686.526 730.697 756.966C558.884 996.899 208.004 769.341 314.27 508.472C453.084 190.472 917.084 350.032 870.27 681.286C848.458 894.472 598.697 1024.23 407.217 940.592C216.164 864.904 129.644 618.592 221.59 437.406C340.841 178.392 726.337 139.779 899.777 363.031C1206.2 738.658 805.902 1245.98 363.217 1098.78C163.03 1036.09 21.3503 841.591 0.896923 635.831C-34.6657 -107.222 997.884 -239.289 1216.08 454.644C1377.76 916.511 916.084 1290.46 1055.52 1086.27L1055.47 1086.29Z" fill="white"/>
</svg>
